<?xml version="1.0" encoding="utf-8"?>
<!-- Generator: Adobe Illustrator 24.3.0, SVG Export Plug-In . SVG Version: 6.00 Build 0)  -->
<svg version="1.1" xmlns="http://www.w3.org/2000/svg" xmlns:xlink="http://www.w3.org/1999/xlink" x="0px" y="0px"
	 viewBox="0 0 1920 1080" style="enable-background:new 0 0 1920 1080;" xml:space="preserve">
<style type="text/css">
	.st0{fill:#FFFFFF;}
	.st1{fill:#006837;}
	.st2{fill:#8CC63F;}
</style>
<g id="Capa_1">
</g>
<g id="oscuro">
</g>
<g id="claro">
	<g>
		<path d="M992.8,881.2c6.4,26.8-18.9,40.9-41.1,33.9c-8-2.5-13.6-8.1-19.1-14c-3.1-3.3-6.9-5.9-10.7-9.2c-0.5,1.7-0.8,2-0.7,2.3
			c5.1,18.2-6.5,28.4-19,33.7c-18.2,7.7-38.1,1-45.6-15.7c-1.9-4.2-3.3-8.9-3.3-13.5c-0.1-17-7.9-30.2-20.3-40.7
			c-15.7-13.3-32.2-25.8-48-39.2c-9.6-8.1-18.5-17.2-27.8-25.7c-1.4-1.3-3.1-2.7-4.8-3.1c-27.2-6-51.7-17.3-73.4-36.4
			c2.7,7.7,5.7,14.4,7.4,21.4c1.9,8.2,3.3,16.6,3.7,25c0.6,11.4-4.7,20.1-14.7,25.9c-15.8,9.2-33.3,12.2-51.1,13.9
			c-3,0.3-6,0.4-9,0.6c-0.5,0-0.9,0.3-2.3,0.8c9.2,0.5,17.6,0.7,25.8,1.5c10.1,0.9,17.3,6.4,20,16.2c2.8,10.1-1,18.4-8.9,24.8
			c-11.4,9.2-23.3,9.8-36.2,1.6c-1,1.7-1.9,3.4-2.9,5c-7.9,13.1-23.2,17-35.7,8.3c-5.2-3.6-9.4-8.8-13.4-13.8
			c-4.4-5.5-7.7-7.2-15-5.7c-3,15.3-8.7,20.5-24.8,22c-4.4,0.4-9,0.3-13.4-0.4c-10.9-1.7-17.8-8.6-20.3-18.9
			c-3.1-12.9-9.7-23.2-19.3-31.9c-1-0.9-1.8-2-2.9-2.8c-24.7-18.8-37.8-45.1-47.9-73.4c-10.1-28.3-17.1-57.4-19.7-87.4
			c-1-12-0.5-24,3.5-35.5c7-20.3,22.8-32,44.3-32.8c14.9-0.6,29.1,2.7,42.9,7.8c5.9-12.9,11.3-26,17.8-38.5
			c21.5-41.2,43.2-82.3,65.4-123c13.3-24.4,27-48.7,42-72.1c28.2-44,68.8-72.6,117.6-90.2c33.8-12.2,68.9-18.7,104.6-19.8
			c36.8-1.2,70.4-11.6,101.4-31.2c1.9-1.2,3.5-3.4,4.4-5.5c14.8-34.8,39.8-57.3,77.6-63c24.4-3.7,46.4,4.3,66.4,18
			c3.5,2.4,6.6,3.4,11,2.6c18.7-3.4,37.6-5.9,56.6-3.1c8.2,1.2,16.2,3.4,24.4,5.1c15.7-30.9,70-43.2,102.9-22
			c30,19.4,40.4,65.1,21.6,95.4c6.2,4.7,12.6,9.2,18.7,14.1c27.3,21.9,45.2,49.9,53.1,84.1c1,4.3,1.5,8.9,1.6,13.4
			c0.1,13.3-6,22.9-17.8,28.9c-10.8,5.4-22.5,7.3-34.3,7.8c-13.8,0.5-27.6,0.3-41.5,0.3c-1.8,0-3.6,0-6.1,0c2.7,5.3,5.2,10.1,7.5,15
			c7.5,15.6,14.9,31.3,17.6,48.6c0.6,3.8,0.8,7.7,0.5,11.4c-0.7,10.2-6.2,17-16.3,18.7c-8,1.3-16.2,1.1-24.3,1.6
			c-2.3,0.1-4.7-0.1-6.8,0.7c-24.9,9.3-46.5,23.7-64.8,43c-2.1,2.2-4,4.5-5.6,7c-6.9,11-13.6,22.1-20,32.5
			c14.3,9.9,28,19.9,42.2,29.1c15.9,10.4,25.4,25.4,33.1,42.2c11.4,24.8,18,51.1,23.5,77.7c3.2,15.3,11.7,26.2,26.1,31.6
			c11.4,4.3,23.4,7.6,35.2,10.7c3.3,0.9,7.2-0.1,10.8-0.6c5.9-0.8,11.8-2.5,17.7-2.9c17.6-1.3,28.5,12.9,23.1,29.8
			c-0.4,1.4-1,2.7-1,2.7c4.6,5.6,9.5,9.9,12.2,15.3c7.2,14.1,0.2,29.1-14.9,33.7c-13,3.9-25,1.8-36.6-5.8c-0.3,0.9-0.6,1.6-0.8,2.3
			c-4,15.9-17.2,24.7-33.4,22c-15.3-2.5-26.5-10.4-32.2-25.2c-0.2-0.5-0.5-0.9-0.6-1.4c-4.8-21.4-20.6-31.9-39.4-38.7
			c-10.3-3.7-21.1-6.2-31.7-8.8c-7-1.7-13.6,0.2-19.5,4.2c-4.3,2.9-8.5,5.9-12.7,8.8c-12.2,8.3-25.7,10.8-40,7.7
			c-16.3-3.5-24.7-16.9-21.4-33.3c4-19.9,17-26.8,35.7-18.7c9.8,4.2,19.5,5.7,29.3,0.5c0.9-0.5,1.6-1.1,3.1-2
			c-2.4-3.8-4.5-7.7-7.2-11.2c-8.3-11.1-16.7-22-25.1-33c-13.8-18.1-22-38.3-23.6-61c0-0.6-0.2-1.3-0.3-1.9
			c-3.7-1.4-6.2-0.4-8.9,2.5c-32.1,34.9-69.5,62.5-113.6,80.5c-23.3,9.5-53.8,18.8-94.1,21.8c0.9,1.2,1.4,2.3,2.2,3.2
			c11.5,12.2,24.3,22.7,39.5,30.1c19.9,9.7,39.7,19.5,59.5,29.4c9,4.5,18.2,7.2,28.4,4.7c2.4-0.6,5-0.5,7.5-0.3
			c15.9,1.3,26,16,21.7,31.4c-2.3,8.3-9.9,13.6-20.3,14.1c-8.2,0.4-15.8-2-22.9-6c-4.4-2.4-8.7-5-13.2-7.1
			C999,882.7,996.3,882.2,992.8,881.2z M976.2,883.5c-2.1-8.4-6.8-12.9-16.2-13.9c-7.5-0.9-15.3-3.7-21.8-7.6
			c-7-4.2-13-10.3-19-16.1c-4-3.9-7.1-8.7-10.6-13.1c0.4-0.4,0.9-0.9,1.3-1.3c1.5,0.9,3,1.7,4.4,2.8c7.9,5.9,15.9,11.6,23.6,17.7
			c7.2,5.8,15.4,8.2,24.4,9.1c5.1,0.5,10.1,2,15,3.4c5.3,1.4,10.4,3.2,15.7,4.7c2.6,0.7,12.3,3.5,13.7,4.1c3.4,1.4,6.6,3.3,10,4.5
			c5,1.8,10.1,2.6,14.9-0.4c4-2.5,4.7-6.8,0.9-9.4c-3.4-2.3-7.7-3.6-11.8-4.6c-4.9-1.3-10.5-0.9-15-3c-25.8-12-51.9-23.6-76.8-37.2
			c-31.3-17.1-52.4-44.4-68.2-75.7c-12.5-24.7-25.6-49-44.1-69.9c-2.6-3-5.1-6.1-7.7-9.1c0.3-0.4,0.6-0.7,1-1.1
			c2.6,1.6,5.1,3.1,8.2,5c5.6-8.4,11.3-16.4,16.5-24.7c18.9-30.2,39.1-59.6,51.4-93.5c0.6-1.6,7.8-29,3.9-34.9
			c0.5-0.2,1.1-0.4,1.6-0.6c2.1,1.8,4.2,3.6,6.3,5.3c12.5-9.5,7.8-20.5,2-31.6c0.7-0.3,1.3-0.5,2-0.8c3,3.4,6.1,6.8,9.1,10.1
			c12.6-16.5,35.1-35.1,47.8-38.9c-2.4,2.1-4.1,3.6-5.9,5.1c-14.2,12.5-27.8,25.5-35.5,43.2c-1.4,3.3-1.7,7.2-1.8,10.9
			c-0.2,9.3,1.4,18.8-0.3,27.8c-2.7,14.4-7.4,28.5-11.5,42.7c-4.7,15.9-12.8,30-23.1,42.8c-13.2,16.5-26.8,32.6-40.6,48.7
			c-3.9,4.6-4.1,4.7-0.6,9.9c7.8,11.6,15.8,23.1,22.7,35.2c9,15.8,17.1,32,28.8,46c1,1.2,3,2.5,4.3,2.3c15-2.2,30.1-4,44.8-7.4
			c47-10.8,88.5-32.7,125.4-63.4c39.4-32.8,70-73,95.9-116.8c14.2-24.1,31.8-44.3,56.8-57.4c8.9-4.7,18.3-8.2,28.2-12.6
			c-14.6-1.7-28.7-3.3-42.8-4.9c1.8-1.6,3.8-2.6,6-3.1c10.9-2.5,21.8-1.4,32.7,0.5c13.1,2.2,26.2,4.8,39.6,1.8
			c8.9-2,12.3-5.7,12.2-14.8c-0.1-19-9-35.3-16.4-52.1c1.2,4.4,3,8.6,4.4,13c3.1,9.8,5.3,19.7,1.5,29.8c-2.2,6-6.4,8.9-12.7,8.3
			c-5.3-0.5-10.6-1.5-15.7-2.9c-31.7-8.9-61.8-21.7-91.4-36c-30.4-14.7-62.1-24.8-95.7-28.6c-21.2-2.4-42.5-3.7-63.7-5.6
			c-9.1-0.8-17.8-2.8-25.1-8.7c-1.4-1.1-2.4-2.6-3.6-4c5.5,1.9,10.4,4.7,15.4,5.1c10.6,0.9,21.4,2,31.8,0.5
			c30.4-4.5,60.8-9.8,91-15.7c18.9-3.7,37.8-6.5,57-4.1c32.4,4,64.7,8.6,97.2,12.2c13.7,1.5,27.6,1.9,41.3,1.4
			c13.7-0.6,22.2-8.3,24.7-20.7c0.9-4.3,1.1-9.1,0.4-13.4c-4-23.3-12.5-45.1-27-63.8c-17.3-22.3-38.8-40.7-60.3-58.8
			c-6.6-5.6-12.8-11.7-19.1-17.6c0.3-0.3,0.6-0.7,0.9-1c2.5,1.6,5,3.2,7.8,5c1.5-11.1,5.9-20.1,13-27.7c7.2-7.7,15.9-12.7,27.1-13.6
			c-16.3-15.4-47.9-19.8-68.2-9.9c-8.9,4.3-17,9.7-21.5,18.7c3.1,2.7,5.8,5.1,8.5,7.5c-1.7,1.1-2.7,1.1-3.6,0.9
			c-2.9-0.8-5.8-1.4-8.6-2.5c-16.7-6.1-33.7-8.8-51.5-6.1c-5.4,0.8-9.6,2.8-11.8,7.9c-2.8,6.6-3.5,13.4-1.4,20.4
			c1.3,4.2,2.3,8.5,3.6,13.4c-11.2-5.7-19.2-13.4-26.8-21.8c-5.3-5.9-11-11.9-17.6-16c-14.6-9.1-31.3-12.9-48.2-15.5
			c-7.1-1.1-14.8-2.5-21.6-0.9c-14.4,3.3-26.2,11.8-36.8,22.1c-13.5,13.2-21.9,29.6-29.2,46.7c-0.9,2.2-2.1,4.3-3.2,6.4
			c-1.2-1.9-1.5-3.4-1.5-5c-0.1-1.7,0-3.5,0-5.5c-0.7,0.4-1.2,0.6-1.6,0.8c-27.4,19-58.1,28.4-91.1,30.5c-22.6,1.4-45.2,3-67.3,8.3
			c-13.9,3.4-28.5,5.1-41,13.2c-1.1,0.7-2.9,0.5-4.3,0.7c-1.8,0.3-3.7,0.3-5.3,0.9c-29.6,11.5-55.5,28.9-78.3,50.9
			c-16.9,16.4-29.3,36.1-40.6,56.6c-27.2,49.4-54.8,98.7-81.7,148.2c-4,7.4-6.5,16.1-7.9,24.5c-2.4,15-0.6,29.6,11.2,40.7
			c19.5,18.4,31.8,41.2,42.2,65.4c8,18.7,11.9,38.4,15.5,58.3c0.2,0.9,0.2,1.9,0.2,2.9c-2.9-3.6-4.8-7.4-6.5-11.3
			c-12-26.6-25.3-52.5-43.8-75.3c-21-25.9-46.3-44.5-80.7-47.4c-16.3-1.4-31.1,1.7-40.7,16.6c-6,9.4-7.3,20.2-7.1,31.2
			c0.6,29.1,7.3,57.1,16.2,84.5c6.9,21.3,14.8,42.3,28.9,59.9c6.5,8.1,14.8,14.8,22.2,22.2c7.5,7.6,15.3,15.3,17.9,26
			c2,8.2,6.7,13.2,14,16.6c5.9,2.8,11.9,3.3,17.8,0.5c3.7-1.7,7.4-4.1,7-8.8c-0.4-5-1.1-9.8-6.7-12.9c-9.1-5-18-10.7-26.4-16.9
			c-3.7-2.7-6-7.3-8.9-11c0.4-0.3,0.7-0.5,1.1-0.8c2.7,2.4,5,5.5,8.1,7.2c9.9,5.5,20.1,10.2,30,15.7c4.8,2.7,9,6.4,13.6,9.6
			c1,0.7,2.2,1.4,3.4,1.7c11.1,2.6,21.5,6.6,31,13.3c7.6,5.4,15.4,3.5,20.9-3.9c2.1-2.9,2.5-6-0.3-8c-5.9-4.1-11.9-8.4-18.4-11.2
			c-9-3.8-19.2-5-27.7-9.5c-9-4.8-18.4-8.4-27.7-12.3c-21.7-9.3-41.1-21.7-53.1-42.8c-4.4-7.7-6.8-16.6-10.9-24.6
			c-11.3-21.5-18.5-44.2-20.6-68.3c-0.8-9.5,0-19,0-28.6c0.6,0,1.3-0.1,1.9-0.1c0.3,1.9,0.8,3.8,1,5.7c2.3,21.6,6.2,42.9,15,62.9
			c5.3,11.9,11.8,23.5,18.9,34.4c10.8,16.6,28.8,22.6,46.6,27.7c27.1,7.7,54.8,9,82.7,5.6c15.4-1.9,30.6-4.6,44.9-11.2
			c7.8-3.6,10.8-7,9.8-15.4c-0.9-7.7-3.1-15.3-5.2-22.8c-1-3.7-3.3-11.5-3.5-11.4c-22.4-43.6-43.5-87.3-73.1-126.2
			c19.9,13.3,34.7,31.8,50.7,50.5c-5.1-22.2-10.1-43.4-3.3-65.1c1,1.4,1.4,2.9,1.7,4.5c3,15.7,5.2,31.6,9.1,47
			c9.3,37,26.5,69.5,57.7,93.1c14.6,11,30.8,18.7,49.3,24.1c-1.4-2-2.3-3.2-3.1-4.4c-15.5-23.1-27.4-47.7-29.6-75.9
			c-1.4-18.2,2.6-34.7,18.1-46.2c22.7-16.8,42-36.9,59.4-58.9c3.8-4.8,7.5-9.8,11.2-14.6c-1.2-0.3-1.8,0-2.4,0.2
			c-19.1,8.2-38.9,12.6-59.9,10.2c-16.4-1.9-31.6-7.8-46.8-13.9c-26.2-10.6-50.6-6.2-73.1,10.2c-11.7,8.5-23,17.7-34.5,26.5
			c-1,0.8-2.2,1.3-3.2,2c6.1-8.1,12.7-15.3,19.1-22.7c12.5-14.6,25.4-28.8,42.6-38c11.4-6.1,23.5-10.1,36.5-8.1
			c16.6,2.6,33.1,6,49.5,9.3c22.2,4.4,44.3,9.4,67.3,7c12.7-1.3,23.3-5.1,31.4-16.3c6.1-8.5,14.7-15.3,22.9-22.1
			c4.3-3.5,10-5.2,15.1-7.7c0.3,0.5,0.5,0.9,0.8,1.4c-0.4,0.4-0.7,1-1.2,1.3c-9.8,4.8-17.4,12.4-23.8,20.9
			c-12.9,17-25.2,34.4-37.9,51.5c-17.9,24.4-37.1,47.8-61.8,65.6c-17.3,12.4-21.8,28.5-18.3,47.9c7.2,40,28.4,72.2,57.9,99.1
			c14.9,13.5,31.6,24.9,47.2,37.8c18.4,15.2,34.8,31.6,35.6,58c0.2,8,10.1,15.4,18,14.1c6.7-1.1,13.2-4.1,19.4-7.1
			c4.8-2.3,5.1-7.1,3.7-11.8c-0.8-2.5-1.9-5.2-3.6-7c-3.2-3.5-7-6.5-10.5-9.7c-7.7-7.1-10.8-16.7-13.6-26.3
			c-1.6-5.7-2.5-11.6-3.8-17.4c0.4-0.1,0.9-0.2,1.3-0.3c0.6,1.3,1.2,2.6,1.8,3.9c3.7,8.4,7.2,16.8,11.1,25.1
			c2.7,5.7,7.1,9.6,13.5,11.7c18.1,5.9,36.9,10.7,50.9,25.3c3.7,3.8,9,3.8,14.2,2.7 M1332.8,814.1c0.1-0.5,0.3-1,0.4-1.5
			c-0.7-0.3-1.4-0.8-2.2-1c-1.9-0.5-3.9-1.1-5.8-1.3c-15.7-1.7-30.6-5.9-44.9-12.9c-16-7.8-28-19.1-36.6-34.7
			c-12.3-22.2-20-46.3-29-69.9c-0.2-0.6-3.5-9-4.8-12.1c-7.2-16.7-19.6-27.4-37.5-31.2c-6.1-1.3-9.2,0.4-11.5,6
			c-2.1,5-3.8,10.2-5.6,15.1c-0.3-1-0.7-2.5-1.2-4.1c-2.4-7.6-6.9-13.6-13.5-18c-2.6-1.7-4.2-1.6-6.2,1c-3.6,5-7.6,9.7-11.4,14.6
			c-1.9,2.4-3.8,4.7-5.1,6.4c8.1,1.6,15.9,2.8,23.6,4.9c3.8,1,7.3,3.3,6.9,8.6c-8.7-1.7-17.1-3.3-26.3-5.1
			c5.8,22,13.2,41.8,26.7,58.8c3.1,3.9,6.3,7.8,9,11.9c6.9,10.6,13.5,21.3,20.8,32.9c2.3-2.6,4.8-5.5,7.2-8.4
			c-3.5,10.9-10,19-20.8,23.2c-10.5,4.1-20.5,2.2-30.6-1.6c-11.7-4.5-18.7-0.5-21,11.9c-0.5,2.7-0.5,5.7-0.2,8.4
			c1.1,9.7,8.7,15.4,18,12.6c7.6-2.3,15.3-5.1,21.9-9.3c13.2-8.4,27.6-11.1,42.5-10.4c15.2,0.7,29.7,5.7,43.6,12
			c14.6,6.6,27.4,15.3,35.4,30.2c3.9,7.2,9.6,13.6,15.1,19.8c6.1,6.9,15.9,8,23.8,3.3c5.9-3.5,7.9-9,7.7-15.7
			c-0.1-5.9-4.4-7.8-8.7-9.6c-12.7-5.3-23.3-13.5-32.9-23.1c-2.8-2.8-5.4-5.8-8.2-8.7c0.3-0.4,0.7-0.7,1-1.1
			c2.6,1.7,5.1,3.5,7.8,5.1c11.4,6.5,22.8,12.9,34.1,19.5c5.1,3,10,6.2,14.9,9.6c7.7,5.3,15.7,10.1,25.3,10.7
			c6.2,0.4,10.9-4.5,11.6-11.3c0.9-8.1-1.6-12.8-8.5-13.9c-5.7-0.9-11.7,0-17.3-0.9c-17.4-2.8-33.2-9.5-47.5-19.8
			c-2.8-2-4.9-4.9-7.3-7.5C1301.6,810.3,1317,813.4,1332.8,814.1z M1258.9,255.7c0-3-0.1-4.9,0-6.8c0.4-6.3,2.8-11.6,7.9-15.5
			c6.6-5,15.5-3,18.8,4.6c1.4,3.4,2,7.4,1.8,11.1c-0.3,6.5-3.8,11.7-9.3,15.7c7.2,4,13.9,7.7,21,11.5c0.6-2.2,1-3.8,1.4-5.4
			c4-19.2,4-38-4.9-56c-1.1-2.2-3.6-4.4-6-5.2c-13.4-4.6-25.3-1-34.2,9.5c-6.1,7.2-10.6,15.8-16.2,24.2
			C1246.3,247.9,1252.2,251.6,1258.9,255.7z M828.7,681.2c5.3-5.7,10.6-10.9,15.4-16.6c15.5-18.3,30.7-36.8,42.1-58.1
			c9.5-17.7,13.4-36.6,10.9-56.9c-13.2,48.9-43.1,87.6-75.9,124.8C823.8,676.8,825.9,678.7,828.7,681.2z M1271.6,250.8
			c-3.6,0.4-5.7,2.3-5.7,6.1c0,3.9,2.4,5.8,6,5.8c3.7,0,5.9-2.4,5.9-6C1277.6,253,1275.4,250.9,1271.6,250.8z M657.7,733
			c-0.8,0-1.6-0.1-2.4-0.1c-1.1,2.2-3.3,4.5-3.2,6.7c0.4,6.1,5.3,9.3,10.2,14.1c-0.2-4.3-0.4-7.1-0.5-10.4
			C652.2,744.9,655.6,738.6,657.7,733z M1232.5,688.8c-2.7-1.4-6.1-2.2-7-4.1c-0.7-1.4,1.8-4.3,3.1-7c-2.3-2.3-3.9,0-5.3,1.9
			c-2.4,3.3-1.7,7.3,1.5,9.6C1227.8,691.5,1230.4,691.1,1232.5,688.8z M1267.2,425.9c-0.6,0.4-1.2,0.7-1.7,1.1
			c3.3,5.4,6.6,10.8,9.9,16.1c0.3-0.2,0.6-0.3,0.8-0.5C1273.2,437.1,1270.2,431.5,1267.2,425.9z"/>
		<path class="st0" d="M1258.9,255.7c-6.6-4.1-12.6-7.9-19.5-12.2c5.5-8.4,10-17,16.2-24.2c8.9-10.5,20.7-14.1,34.2-9.5
			c2.3,0.8,4.9,3,6,5.2c8.8,18,8.9,36.9,4.9,56c-0.3,1.6-0.8,3.2-1.4,5.4c-7-3.9-13.8-7.6-21-11.5c5.5-4,9-9.2,9.3-15.7
			c0.2-3.7-0.4-7.7-1.8-11.1c-3.3-7.6-12.2-9.7-18.8-4.6c-5.1,3.8-7.6,9.2-7.9,15.5C1258.8,250.8,1258.9,252.8,1258.9,255.7z"/>
		<path class="st0" d="M1271.6,250.8c3.9,0.1,6.1,2.3,6.1,5.8c0.1,3.6-2.2,6-5.9,6c-3.6,0-6-1.9-6-5.8
			C1265.9,253.1,1268,251.1,1271.6,250.8z"/>
		<path d="M657.7,733c-2.1,5.6-5.6,12,4.1,10.3c0.2,3.3,0.3,6.1,0.5,10.4c-5-4.8-9.9-8-10.2-14.1c-0.1-2.2,2.1-4.5,3.2-6.7
			C656.2,732.9,657,732.9,657.7,733z"/>
		<path d="M1232.5,688.8c-2.1,2.3-4.7,2.6-7.6,0.5c-3.2-2.4-4-6.3-1.5-9.6c1.4-1.9,3-4.2,5.3-1.9c-1.3,2.7-3.8,5.6-3.1,7
			C1226.4,686.7,1229.8,687.4,1232.5,688.8z"/>
		<path class="st0" d="M1267.2,425.9c3,5.6,6,11.1,9,16.7c-0.3,0.2-0.6,0.3-0.8,0.5c-3.3-5.4-6.6-10.8-9.9-16.1
			C1266,426.6,1266.6,426.3,1267.2,425.9z"/>
		<path d="M982.5,288.5c0.2-35.2,28.8-63.7,63.7-63.4c34.4,0.3,62.5,28.9,62.2,63.7c-0.3,36.2-27.5,63.7-63.1,63.5
			C1010.7,352.1,982.3,323.3,982.5,288.5z M1104,289.9c0.2-31.8-25-57.4-56.7-57.6c-31.7-0.2-57,24.7-57.2,56.3
			c-0.1,31,24.9,56.1,56.2,56.3C1077.3,345.1,1103.8,319.8,1104,289.9z"/>
		<path d="M1002.1,482.7c-4-1.1-8.3-1.5-11.9-3.4c-7.6-3.9-15.6-7.7-22.2-13.1c-21.3-17.4-24.4-44.7-7.8-67.2c4-5.5,9.9-9.6,15.3-14
			c1.8-1.4,4.5-1.7,6.7-2.5c0.3,0.4,0.5,0.9,0.8,1.3c-2.1,1.6-4.2,3.2-6.1,4.9c-15.1,13-23.3,29-19.7,49.4
			c2.1,11.9,9.4,20.9,19.1,27.6c7.1,4.9,14.9,8.7,22.4,12.9c1.4,0.8,2.7,1.6,4,2.4C1002.4,481.7,1002.2,482.2,1002.1,482.7z"/>
		<path d="M1261.2,347.1c12.6,4.5,23.3,10.7,30.4,22.3C1280,374.2,1259.6,359.4,1261.2,347.1z"/>
		<path class="st0" d="M1104,289.9c-0.1,29.9-26.6,55.2-57.7,55c-31.2-0.2-56.3-25.3-56.2-56.3c0.1-31.6,25.5-56.5,57.2-56.3
			C1078.9,232.5,1104.1,258.1,1104,289.9z M1061.1,291.7c0-8.9-3.7-16.7-9.6-21.3c-10-7.9-22.3-3.6-24.9,8.8c-1.9,9,1,16.8,7.6,23.1
			c5.1,4.9,11.2,6.9,17.8,4C1058.8,303.4,1060.8,297.3,1061.1,291.7z"/>
		<path d="M1061.1,291.7c-0.3,5.6-2.3,11.7-9.1,14.6c-6.7,2.9-12.8,0.8-17.8-4c-6.6-6.3-9.5-14.1-7.6-23.1
			c2.6-12.4,14.9-16.7,24.9-8.8C1057.4,275,1061.1,282.8,1061.1,291.7z M1047.9,303c3.8-0.1,7-3.3,7-7.1c0-4-3.4-7.2-7.5-7
			c-3.9,0.2-6.8,3.4-6.6,7.3C1040.9,300.1,1044,303.1,1047.9,303z"/>
		<path class="st0" d="M1047.9,303c-3.9,0.1-7-2.9-7.1-6.8c-0.1-3.9,2.8-7.1,6.6-7.3c4-0.2,7.5,3,7.5,7
			C1054.9,299.7,1051.7,302.9,1047.9,303z"/>
		<path class="st1" d="M1334.7,377.7c-4-23.3-12.5-45.1-27-63.8c-17.3-22.3-38.8-40.7-60.3-58.8c-6.6-5.6-12.8-11.7-19.1-17.6
			c0.3-0.3,0.6-0.7,0.9-1c2.5,1.6,5,3.2,7.8,5c1.5-11.1,5.9-20.1,13-27.7c7.2-7.7,15.9-12.7,27.1-13.6
			c-16.3-15.4-47.9-19.8-68.2-9.9c-8.9,4.3-17,9.7-21.5,18.7c3.1,2.7,5.8,5.1,8.5,7.5c-1.7,1.1-2.7,1.1-3.6,0.9
			c-2.9-0.8-5.8-1.4-8.6-2.5c-16.7-6.1-33.7-8.8-51.5-6.1c-5.4,0.8-9.6,2.8-11.8,7.9c-2.8,6.6-3.5,13.4-1.4,20.4
			c1.3,4.2,2.3,8.5,3.6,13.4c-11.2-5.7-19.2-13.4-26.8-21.8c-5.3-5.9-11-11.9-17.6-16c-14.6-9.1-31.3-12.9-48.2-15.5
			c-7.1-1.1-14.8-2.5-21.6-0.9c-14.4,3.3-26.2,11.8-36.8,22.1c-13.5,13.2-21.9,29.6-29.2,46.7c-0.9,2.2-2.1,4.3-3.2,6.4
			c-1.2-1.9-1.5-3.4-1.5-5c-0.1-1.7,0-3.5,0-5.5c-0.7,0.4-1.2,0.6-1.6,0.8c-27.4,19-58.1,28.4-91.1,30.5c-22.6,1.4-45.2,3-67.3,8.3
			c-13.9,3.4-28.5,5.1-41,13.2c-1.1,0.7-2.9,0.5-4.3,0.7c-1.8,0.3-3.7,0.3-5.3,0.9c-29.6,11.5-55.5,28.9-78.3,50.9
			c-16.9,16.4-29.3,36.1-40.6,56.6c-27.2,49.4-54.8,98.7-81.7,148.2c-4,7.4-6.5,16.1-7.9,24.5c-2.4,15-0.6,29.6,11.2,40.7
			c19.5,18.4,31.8,41.2,42.2,65.4c8,18.7,11.9,38.4,15.5,58.3c0.2,0.9,0.2,1.9,0.2,2.9c-2.9-3.6-4.8-7.4-6.5-11.3
			c-12-26.6-25.3-52.5-43.8-75.3c-21-25.9-46.3-44.5-80.7-47.4c-16.3-1.4-31.1,1.7-40.7,16.6c-6,9.4-7.3,20.2-7.1,31.2
			c0.6,29.1,7.3,57.1,16.2,84.5c6.9,21.3,14.8,42.3,28.9,59.9c6.5,8.1,14.8,14.8,22.2,22.2c7.5,7.6,15.3,15.3,17.9,26
			c2,8.2,6.7,13.2,14,16.6c5.9,2.8,11.9,3.3,17.8,0.5c3.7-1.7,7.4-4.1,7-8.8c-0.4-5-1.1-9.8-6.7-12.9c-9.1-5-18-10.7-26.4-16.9
			c-3.7-2.7-6-7.3-8.9-11c0.4-0.3,0.7-0.5,1.1-0.8c2.7,2.4,5,5.5,8.1,7.2c9.9,5.5,20.1,10.2,30,15.7c4.8,2.7,9,6.4,13.6,9.6
			c1,0.7,2.2,1.4,3.4,1.7c11.1,2.6,21.5,6.6,31,13.3c7.6,5.4,15.4,3.5,20.9-3.9c2.1-2.9,2.5-6-0.3-8c-5.9-4.1-11.9-8.4-18.4-11.2
			c-9-3.8-19.2-5-27.7-9.5c-9-4.8-18.4-8.4-27.7-12.3c-21.7-9.3-41.1-21.7-53.1-42.8c-4.4-7.7-6.8-16.6-10.9-24.6
			c-11.3-21.5-18.5-44.2-20.6-68.3c-0.8-9.5,0-19,0-28.6c0.6,0,1.3-0.1,1.9-0.1c0.3,1.9,0.8,3.8,1,5.7c2.3,21.6,6.2,42.9,15,62.9
			c5.3,11.9,11.8,23.5,18.9,34.4c10.8,16.6,28.8,22.6,46.6,27.7c27.1,7.7,54.8,9,82.7,5.6c15.4-1.9,30.6-4.6,44.9-11.2
			c7.8-3.6,10.8-7,9.8-15.4c-0.9-7.7-3.1-15.3-5.2-22.8c-1-3.7-3.3-11.5-3.5-11.4c-18.7-36.4-36.6-73-59.3-106.8
			c-5.5-4.7-10.2-10-12.1-17.1c-0.6-0.8-1.2-1.6-1.8-2.4c0.5,0.3,1,0.7,1.4,1c-0.2-0.8-0.3-1.7-0.4-2.6c-0.3-2.9-0.2-6.1,0.4-9.3
			c0,0,0,0-0.1,0c0,0,0-0.1,0.1-0.1c2-11.2,9.3-22.4,20.5-24.3c12.1-14,24.6-27.5,41.2-36.4c11.4-6.1,23.5-10.1,36.5-8.1
			c16.6,2.6,33.1,6,49.5,9.3c22.2,4.4,44.3,9.4,67.3,7c12.7-1.3,23.3-5.1,31.4-16.3c6.1-8.5,14.7-15.3,22.9-22.1
			c4.3-3.5,10-5.2,15.1-7.7l0.8,1.4c-0.4,0.4-0.7,1-1.2,1.3c-9.8,4.8-17.4,12.4-23.8,20.9c-12.9,17-25.2,34.4-37.9,51.5
			c-17.9,24.4-37.1,47.8-61.8,65.6c-17.3,12.4-21.8,28.5-18.3,47.9c7.2,40,28.4,72.2,57.9,99.1c14.9,13.5,31.6,24.9,47.2,37.8
			c18.4,15.2,34.8,31.6,35.6,58c0.2,8,10.1,15.4,18,14.1c6.7-1.1,13.2-4.1,19.4-7.1c4.8-2.3,5.1-7.1,3.7-11.8
			c-0.8-2.5-1.9-5.2-3.6-7c-3.2-3.5-7-6.5-10.5-9.7c-7.7-7.1-10.8-16.7-13.6-26.3c-1.6-5.7-2.5-11.6-3.8-17.4
			c0.4-0.1,0.9-0.2,1.3-0.3c0.6,1.3,1.2,2.6,1.8,3.9c3.7,8.4,7.2,16.8,11.1,25.1c2.7,5.7,7.1,9.6,13.5,11.7
			c18.1,5.9,36.9,10.7,50.9,25.3c3.7,3.8,9,3.8,14.2,2.7c1.2-0.3,12-5.5,10.3-17c-2.1-8.4-6.8-12.9-16.2-13.9
			c-7.5-0.9-15.3-3.7-21.8-7.6c-7-4.2-13-10.3-19-16.1c-4-3.9-7.1-8.7-10.6-13.1c0.4-0.4,0.9-0.9,1.3-1.3c1.5,0.9,3,1.7,4.4,2.8
			c7.9,5.9,15.9,11.6,23.6,17.7c7.2,5.8,15.4,8.2,24.4,9.1c5.1,0.5,10.1,2,15,3.4c5.3,1.4,10.4,3.2,15.7,4.7
			c2.6,0.7,12.3,3.5,13.7,4.1c3.4,1.4,6.6,3.3,10,4.5c5,1.8,10.1,2.6,14.9-0.4c4-2.5,4.7-6.8,0.9-9.4c-3.4-2.3-7.7-3.6-11.8-4.6
			c-4.9-1.3-10.5-0.9-15-3c-25.8-12-51.9-23.6-76.8-37.2c-31.3-17.1-52.4-44.4-68.2-75.7c-12.5-24.7-25.6-49-44.1-69.9
			c-2.6-3-5.1-6.1-7.7-9.1c0.3-0.4,0.6-0.7,1-1.1c2.6,1.6,5.1,3.1,8.2,5c5.6-8.4,11.3-16.4,16.5-24.7c18.9-30.2,39.1-59.6,51.4-93.5
			c0.6-1.6,7.8-29,3.9-34.9c0.5-0.2,1.1-0.4,1.6-0.6c2.1,1.8,4.2,3.6,6.3,5.3c12.5-9.5,7.8-20.5,2-31.6c0.7-0.3,1.3-0.5,2-0.8
			c3,3.4,6.1,6.8,9.1,10.1c12.6-16.5,35.1-35.1,47.8-38.9c-2.4,2.1-4.1,3.6-5.9,5.1c-1.2,1-2.3,2-3.5,3.1c4.6-2.8,9.1-5.9,12.8-9.9
			c-16.1-17.4-17.2-41.6-2.3-62c4-5.5,9.9-9.6,15.3-14c1.8-1.4,4.5-1.7,6.7-2.5c0.3,0.4,0.5,0.9,0.8,1.3c-2.1,1.6-4.2,3.2-6.1,4.9
			c-15.1,13-23.3,29-19.7,49.4c1.2,7,4.3,13,8.5,18.1c2.9-5.9,1.8-12.2-0.1-18.9c-1.8-6.4-6.3-16-2.5-22.4
			c5.1-8.5,17.9-1.8,24.7,1.9c1.2,0.3,2.4,0.6,3.6,0.7c10.6,0.9,21.4,2,31.8,0.5c30.4-4.5,60.8-9.8,91-15.7
			c18.9-3.7,37.8-6.5,57-4.1c32.4,4,64.7,8.6,97.2,12.2c13.7,1.5,27.6,1.9,41.3,1.4c13.7-0.6,22.2-8.3,24.7-20.7
			C1335.2,386.8,1335.4,382,1334.7,377.7z M1045.3,352.2c-34.6-0.2-63-29-62.8-63.7c0.2-35.2,28.8-63.7,63.7-63.4
			c34.4,0.3,62.5,28.9,62.2,63.7C1108.1,324.9,1080.9,352.4,1045.3,352.2z M1261.2,347.1c12.6,4.5,23.3,10.7,30.4,22.3
			C1280,374.2,1259.6,359.4,1261.2,347.1z"/>
		<path class="st1" d="M1357.5,835.8c-5.7-0.9-11.7,0-17.3-0.9c-17.4-2.8-33.2-9.5-47.5-19.8c-2.8-2-4.9-4.9-7.3-7.5
			c16.2,2.8,31.6,5.9,47.3,6.5c0.1-0.5,0.3-1,0.4-1.5c-0.7-0.3-1.4-0.8-2.2-1c-1.9-0.5-3.9-1.1-5.8-1.3
			c-15.7-1.7-30.6-5.9-44.9-12.9c-16-7.8-28-19.1-36.6-34.7c-12.3-22.2-20-46.3-29-69.9c-0.2-0.6-3.5-9-4.8-12.1
			c-7.2-16.7-19.6-27.4-37.5-31.2c-6.1-1.3-9.2,0.4-11.5,6c-2.1,5-3.8,10.2-5.6,15.1c-0.3-1-0.7-2.5-1.2-4.1
			c-2.4-7.6-6.9-13.6-13.5-18c-2.6-1.7-4.2-1.6-6.2,1c-3.6,5-7.6,9.7-11.4,14.6c-1.9,2.4-3.8,4.7-5.1,6.4c7.2,1.4,14.2,2.6,21.1,4.2
			c1-2.3,9.5,8.7,10,9.3c15,26,15,25,23,46c7.6,20,17,40,12,49c-2.7,4.6-11.9,19-12.2,14.8c-2,1.4-4.3,2.6-6.8,3.5
			c-10.5,4.1-20.5,2.2-30.6-1.6c-11.7-4.5-18.7-0.5-21,11.9c-0.5,2.7-0.5,5.7-0.2,8.4c1.1,9.7,8.7,15.4,18,12.6
			c7.6-2.3,15.3-5.1,21.9-9.3c13.2-8.4,27.6-11.1,42.5-10.4c15.2,0.7,29.7,5.7,43.6,12c14.6,6.6,27.4,15.3,35.4,30.2
			c3.9,7.2,9.6,13.6,15.1,19.8c6.1,6.9,15.9,8,23.8,3.3c5.9-3.5,7.9-9,7.7-15.7c-0.1-5.9-4.4-7.8-8.7-9.6
			c-12.7-5.3-23.3-13.5-32.9-23.1c-2.8-2.8-5.4-5.8-8.2-8.7c0.3-0.4,0.7-0.7,1-1.1c2.6,1.7,5.1,3.5,7.8,5.1
			c11.4,6.5,22.8,12.9,34.1,19.5c5.1,3,10,6.2,14.9,9.6c7.7,5.3,15.7,10.1,25.3,10.7c6.2,0.4,10.9-4.5,11.6-11.3
			C1366.9,841.6,1364.4,836.9,1357.5,835.8z"/>
		<path class="st2" d="M1282.2,460.2c3.1,9.8,5.3,19.7,1.5,29.8c-2.2,6-6.4,8.9-12.7,8.3c-5.3-0.5-10.6-1.5-15.7-2.9
			c-31.7-8.9-61.8-21.7-91.4-36c-30.4-14.7-62.1-24.8-95.7-28.6c-21.2-2.4-42.5-3.7-63.7-5.6c-9.1-0.8-17.8-2.8-25.1-8.7
			c-0.5-0.4-1-1-1.5-1.5c-0.2,0-0.4,0.1-0.6,0.1c-4,1.2-5.4,6.3-6.1,9.9c-2.5,11.9,3.6,23.8-2.3,34.9c2.2,2.2,4.6,4.2,7.3,6
			c7.1,4.9,14.9,8.7,22.4,12.9c1.4,0.8,2.7,1.6,4,2.4c-0.2,0.5-0.3,1-0.5,1.5c-4-1.1-8.3-1.5-11.9-3.4c-7.6-3.9-15.6-7.7-22.2-13.1
			c-0.8-0.6-1.5-1.3-2.2-1.9c-5.2,6.1-12.9,10.7-19.5,14.9c-4.2,2.7-8.6,5.3-13,7.7c-6.3,7.2-11.8,15-15.8,24
			c-1.4,3.3-1.7,7.2-1.8,10.9c-0.2,9.3,1.4,18.8-0.3,27.8c-2.7,14.4-7.4,28.5-11.5,42.7c-4.7,15.9-12.8,30-23.1,42.8
			c-13.2,16.5-26.8,32.6-40.6,48.7c-3.9,4.6-4.1,4.7-0.6,9.9c7.8,11.6,15.8,23.1,22.7,35.2c9,15.8,17.1,32,28.8,46
			c1,1.2,3,2.5,4.3,2.3c15-2.2,30.1-4,44.8-7.4c47-10.8,88.5-32.7,125.4-63.4c39.4-32.8,70-73,95.9-116.8
			c14.2-24.1,31.8-44.3,56.8-57.4c8.9-4.7,18.3-8.2,28.2-12.6c-14.6-1.7-28.7-3.3-42.8-4.9c1.8-1.6,3.8-2.6,6-3.1
			c10.9-2.5,21.8-1.4,32.7,0.5c13.1,2.2,26.2,4.8,39.6,1.8c8.9-2,12.3-5.7,12.2-14.8c-0.1-19-9-35.3-16.4-52.1
			C1279,451.6,1280.8,455.8,1282.2,460.2z"/>
		<path class="st2" d="M711.8,697.3c-1.4-18.2,2.6-34.7,18.1-46.2c22.7-16.8,42-36.9,59.4-58.9c3.8-4.8,7.5-9.8,11.2-14.6
			c-1.2-0.3-1.8,0-2.4,0.2c-19.1,8.2-38.9,12.6-59.9,10.2c-16.4-1.9-31.6-7.8-46.8-13.9c-26.2-10.6-50.6-6.2-73.1,10.2
			c-5.2,3.8-10.3,7.6-15.3,11.6c-0.3,1.5-1.4,2.8-3.4,3.3c-0.4,0.1-0.8,0.2-1.3,0.4c-3.2,2.5-6.4,5-9.6,7.5
			c-5.4,9.8-0.1,24.9,12.1,28.8c3.9,1.2,4.2,5.6,2.4,8.1c9.2,9.4,17.8,19.7,26.6,30.2c-5.1-22.2-10.1-43.4-3.3-65.1
			c1,1.4,1.4,2.9,1.7,4.5c3,15.7,5.2,31.6,9.1,47c9.3,37,26.5,69.5,57.7,93.1c14.6,11,30.8,18.7,49.3,24.1c-1.4-2-2.3-3.2-3.1-4.4
			C725.9,750.1,714,725.5,711.8,697.3z"/>
		<path class="st2" d="M1148.7,737.7c3.1,3.9,6.3,7.8,9,11.9c6.4,9.8,12.5,19.7,19.2,30.4c15-10,0-33.2-4.3-47.4
			c-5-16.5-13.2-35.4-26.5-47.5c-2.3,0.6-5.1-0.3-6.1-2.8c-5.9-1.1-11.7-2.3-18-3.5C1127.9,700.8,1135.3,720.6,1148.7,737.7z"/>
		<path class="st2" d="M828.7,681.2c-2.7-2.5-4.9-4.4-7.4-6.8c32.8-37.2,62.7-75.9,75.9-124.8c2.6,20.3-1.4,39.2-10.9,56.9
			c-11.4,21.2-26.6,39.8-42.1,58.1C839.3,670.3,834,675.5,828.7,681.2z"/>
	</g>
	<g>
		<g>
			<path class="st1" d="M586.9,600.3c0-0.1,0.1-0.3,0.2-0.5c0.2-0.3,0.3-0.5,0.5-0.7c0.5-0.6,1-1.3,1.5-1.9c0.8-1.2,1.6-2.3,2.6-3.2
				c2-1.9,4.5-3.2,7-4.5c0.7-0.4,0.9-1.4,0.5-2.1c-0.4-0.7-1.3-0.9-2.1-0.5c-2.8,1.5-5.6,3-7.9,5.2c-1.2,1.2-2.1,2.6-3.1,3.9
				c-1,1.4-2.3,2.4-2.4,4.2c0,0.8,0.7,1.5,1.5,1.5C586.2,601.8,586.8,601.2,586.9,600.3L586.9,600.3z"/>
		</g>
	</g>
	<g>
		<g>
			<path class="st1" d="M597.7,587.2c-1.7,1.5-2.4,3.7-3.7,5.6c-1.3,1.9-3.1,3.4-4.8,5c-3.6,3.4-6.8,7.1-9.5,11.3
				c0.9,0.4,1.8,0.8,2.7,1.2c0.6-1.4,1.1-2.8,1.7-4.2c0.3-0.8-0.3-1.6-1-1.8c-0.9-0.2-1.5,0.3-1.8,1c-0.6,1.4-1.1,2.8-1.7,4.2
				c-0.7,1.6,1.9,2.5,2.7,1.2c2.6-4.1,5.8-7.6,9.3-10.9c1.6-1.5,3.2-3,4.5-4.8c1.3-1.7,2-4.1,3.6-5.5
				C601.2,588,599.1,585.9,597.7,587.2L597.7,587.2z"/>
		</g>
	</g>
	<g>
		<g>
			<path class="st1" d="M592.3,592.3c-4.4,4.4-8.5,8.9-12.4,13.7c-0.5,0.6-0.6,1.5,0,2.1c0.5,0.5,1.6,0.6,2.1,0
				c3.9-4.8,8.1-9.4,12.4-13.7C595.8,593.1,593.7,590.9,592.3,592.3L592.3,592.3z"/>
		</g>
	</g>
	<g>
		<g>
			<path class="st1" d="M598.4,587.5c-1.5,1.7-3,3.4-4.5,5.1c-0.3,0.3-0.4,0.6-0.4,1.1c0,0.4,0.2,0.8,0.4,1.1c0.6,0.5,1.6,0.6,2.1,0
				c1.5-1.7,3-3.4,4.5-5.1c0.3-0.3,0.4-0.6,0.4-1.1c0-0.4-0.2-0.8-0.4-1.1C600,587,599,586.8,598.4,587.5L598.4,587.5z"/>
		</g>
	</g>
	<g>
		<g>
			<path class="st1" d="M578.1,613.6c0.1,0,0.2-0.1,0.3-0.1c0.1,0,0.3,0,0.4-0.1c0,0,0,0,0,0c0.1,0,0.3,0,0.4,0.1
				c0.3,0.1,0.8,0.4,0.8,0.8c0-0.1,0-0.1,0-0.2c0,0.1,0,0.3,0.1,0.4c0-0.4,0-0.8,0.1-1.1c0-0.4,0-0.8,0.1-1.2c0-0.8,0.1-1.6,0.1-2.4
				c0-0.8-0.7-1.5-1.5-1.5c-0.9,0-1.5,0.7-1.5,1.5c-0.1,1.2-0.1,2.3-0.2,3.5c0,0.6-0.1,1.2,0,1.8c0.3,1.1,1.5,1.7,2.6,1.2
				c0.7-0.4,1-1.4,0.5-2.1C579.7,613.4,578.8,613.1,578.1,613.6L578.1,613.6z"/>
		</g>
	</g>
	<g>
		<g>
			<path class="st1" d="M579.2,608.9c-0.2,0.5-0.4,1.1-0.6,1.6c0.1-0.1,0.1-0.2,0.2-0.4c-0.4,0.9-0.8,1.9-1.3,2.8
				c-0.4,0.7-0.2,1.7,0.5,2.1c0.7,0.4,1.7,0.2,2.1-0.5c0.8-1.5,1.5-3.1,2.1-4.7c0.1-0.3,0-0.8-0.2-1.2c-0.2-0.3-0.5-0.6-0.9-0.7
				c-0.4-0.1-0.8-0.1-1.2,0.2C579.6,608.2,579.4,608.5,579.2,608.9L579.2,608.9z"/>
		</g>
	</g>
	<g>
		<g>
			<path class="st1" d="M586.1,601.2c-2.5,3.8-5.3,7.4-8.3,10.8c-0.5,0.6-0.6,1.5,0,2.1c0.5,0.5,1.6,0.6,2.1,0
				c3.2-3.6,6.2-7.4,8.8-11.4c0.4-0.7,0.1-1.7-0.5-2.1C587.4,600.2,586.5,600.5,586.1,601.2L586.1,601.2z"/>
		</g>
	</g>
	<g>
		<g>
			<path class="st1" d="M595,642.4c-2.9-3.2-6-6.4-9.1-9.5c-2.8-2.8-5.7-6.3-9.5-7.7c-0.8-0.3-1.6,0.3-1.8,1c-0.2,0.8,0.3,1.6,1,1.8
				c1.6,0.6,2.9,1.8,4.2,3c1.5,1.4,3,2.9,4.5,4.4c2.9,2.9,5.8,6,8.6,9C594.2,646,596.3,643.9,595,642.4L595,642.4z"/>
		</g>
	</g>
	<g>
		<g>
			<path class="st1" d="M576.6,628.1c0.4,0.3,0.8,0.5,1.2,0.8c0.4,0.3-0.2-0.2,0.1,0.1c0.1,0.1,0.1,0.1,0.2,0.2
				c0.2,0.2,0.4,0.3,0.5,0.5c0.7,0.6,1.4,1.3,2.1,2.1c0.2,0.2,0.3,0.4,0.5,0.5c0.1,0.1,0.1,0.2,0.2,0.3c-0.1-0.2,0,0,0.1,0.1
				c0.3,0.4,0.6,0.8,0.8,1.2c0.5,0.8,1,1.7,1.4,2.5c0.3,0.7,1.4,1,2.1,0.5c0.7-0.5,0.9-1.3,0.5-2.1c-1.8-3.8-4.7-7-8.2-9.4
				c-0.7-0.4-1.7-0.2-2.1,0.5C575.7,626.8,575.9,627.7,576.6,628.1L576.6,628.1z"/>
		</g>
	</g>
	<g>
		<g>
			<path class="st1" d="M587.4,636.1c-0.5-2.1-1.8-3.7-3.2-5.3c-1.5-1.7-3-3.4-4.5-5c-0.5-0.6-1.6-0.5-2.1,0c-0.6,0.6-0.5,1.5,0,2.1
				c1.4,1.6,2.8,3.2,4.3,4.8c0.3,0.3,0.6,0.7,0.9,1c0.2,0.2,0.3,0.4,0.5,0.6c0.2,0.2-0.1-0.1,0.1,0.1c0.1,0.1,0.1,0.2,0.2,0.3
				c0.6,0.8,0.9,1.4,1.1,2.3c0.2,0.8,1.1,1.3,1.8,1C587.1,637.7,587.6,636.9,587.4,636.1L587.4,636.1z"/>
		</g>
	</g>
	<g>
		<g>
			<path class="st1" d="M577.6,627.7c0.6,0.6,1.2,1.1,1.7,1.8c0.1,0.2,0.3,0.3,0.4,0.5c0.1,0.1,0.1,0.1,0.2,0.2
				c0.1,0.1,0.2,0.2,0.1,0.1c0.2,0.3,0.5,0.7,0.7,1c0.4,0.7,0.8,1.4,1.2,2.1c0.1,0.2,0.2,0.4,0.3,0.6c0,0.1,0.1,0.2,0.1,0.3
				c0,0,0.1,0.3,0.1,0.1c-0.1-0.2,0.1,0.2,0.1,0.2c0,0.1,0.1,0.2,0.1,0.3c0.1,0.2,0.2,0.4,0.2,0.6c0.3,0.7,1,1.3,1.8,1
				c0.7-0.2,1.3-1.1,1-1.8c-1.2-3.4-3.2-6.6-5.9-9c-0.6-0.5-1.6-0.6-2.1,0C577.1,626.2,577,627.1,577.6,627.7L577.6,627.7z"/>
		</g>
	</g>
	<g>
		<g>
			<path class="st1" d="M586.1,633.4c-1.6-3-4-5.6-6.8-7.6c-0.6-0.5-1.7-0.1-2.1,0.5c-0.4,0.8-0.1,1.6,0.5,2.1
				c0.2,0.1,0.3,0.2,0.5,0.3c0,0,0.3,0.2,0.1,0.1c-0.2-0.1,0.1,0.1,0.1,0.1c0.3,0.2,0.6,0.5,0.9,0.8c0.6,0.5,1.1,1.1,1.6,1.6
				c0.2,0.3,0.5,0.6,0.7,0.9c0.2,0.3-0.1-0.2,0,0c0.1,0.1,0.1,0.2,0.2,0.2c0.1,0.2,0.2,0.3,0.3,0.5c0.4,0.6,0.8,1.3,1.2,2
				c0.4,0.7,1.4,1,2.1,0.5C586.3,635,586.5,634.1,586.1,633.4L586.1,633.4z"/>
		</g>
	</g>
	<g>
		<g>
			<path class="st1" d="M578.2,628.5c1.3,1,2.5,2.2,3.5,3.5c0,0,0.2,0.2,0.1,0.1c-0.1-0.2,0.1,0.1,0.1,0.2c0.1,0.2,0.3,0.3,0.4,0.5
				c0.2,0.3,0.5,0.7,0.7,1c0.4,0.7,0.8,1.5,1.2,2.2c0.3,0.7,1.4,1,2.1,0.5c0.7-0.5,0.9-1.3,0.5-2.1c-1.5-3.1-3.7-6-6.5-8.1
				c-0.6-0.5-1.5-0.6-2.1,0C577.7,627,577.6,628,578.2,628.5L578.2,628.5z"/>
		</g>
	</g>
	<g>
		<g>
			<path class="st1" d="M585.9,633.6c-1.5-3.2-3.5-6.2-5.8-8.9c-0.5-0.6-1.6-0.6-2.1,0c-0.6,0.6-0.5,1.5,0,2.1
				c0.3,0.3,0.5,0.6,0.8,0.9c0.1,0.1,0.1,0.2,0.2,0.2c-0.1-0.2,0.1,0.1,0.1,0.1c0.1,0.2,0.2,0.3,0.4,0.5c0.5,0.7,1,1.4,1.4,2.1
				c0.9,1.4,1.7,2.9,2.5,4.4c0.3,0.7,1.4,1,2.1,0.5C586.1,635.2,586.3,634.4,585.9,633.6L585.9,633.6z"/>
		</g>
	</g>
	<g>
		<g>
			<path class="st2" d="M601.9,606.2c1.3-2.1,2.6-4.2,3.9-6.3c0.4-0.7,0.2-1.7-0.5-2.1c-0.7-0.4-1.6-0.2-2.1,0.5
				c-1.3,2.1-2.6,4.2-3.9,6.3c-0.4,0.7-0.2,1.7,0.5,2.1C600.5,607.1,601.4,606.9,601.9,606.2L601.9,606.2z"/>
		</g>
	</g>
	<g>
		<g>
			<path class="st2" d="M604.1,597.5c-1,0-1.9,0.2-2.8,0.6c-0.4,0.2-0.7,0.4-1.1,0.7c-0.3,0.3-0.6,0.5-0.9,0.9
				c-0.1,0.1-0.2,0.3-0.3,0.5c-0.1,0.2-0.1,0.4-0.1,0.6c0,0.4,0.2,0.8,0.4,1.1c0.3,0.3,0.7,0.5,1.1,0.4c0.4,0,0.8-0.1,1.1-0.4
				c0.2-0.3,0.5-0.5,0.8-0.8c-0.1,0.1-0.2,0.2-0.3,0.2c0.3-0.2,0.7-0.4,1-0.6c-0.1,0.1-0.2,0.1-0.4,0.2c0.4-0.1,0.7-0.2,1.1-0.3
				c-0.1,0-0.3,0-0.4,0.1c0.3,0,0.5,0,0.8,0c0.8,0,1.5-0.7,1.5-1.5C605.6,598.1,605,597.5,604.1,597.5L604.1,597.5z"/>
		</g>
	</g>
	<g>
		<g>
			<path class="st2" d="M600.5,602.5c0,0,0.1-0.1,0.1-0.1c-0.1,0.1-0.2,0.2-0.2,0.3c0.4-0.5,0.9-1,1.4-1.4c-0.1,0.1-0.2,0.2-0.3,0.2
				c0.5-0.4,1.1-0.7,1.7-1c-0.1,0.1-0.2,0.1-0.4,0.2c0.2-0.1,0.5-0.2,0.7-0.3c0.4-0.1,0.7-0.4,0.9-0.7c0.2-0.3,0.3-0.8,0.2-1.2
				c-0.2-0.8-1-1.3-1.8-1c-0.9,0.3-1.8,0.7-2.5,1.2c-0.9,0.6-1.6,1.3-2.2,2.2c-0.2,0.3-0.2,0.8-0.2,1.2c0.1,0.3,0.4,0.7,0.7,0.9
				c0.3,0.2,0.8,0.3,1.2,0.2C600,603.1,600.2,602.9,600.5,602.5L600.5,602.5z"/>
		</g>
	</g>
	<g>
		<g>
			<path class="st2" d="M603.7,597c-0.3,0-0.6,0.1-0.9,0.2c-0.3,0.1-0.6,0.2-0.9,0.3c-0.5,0.2-0.8,0.5-1.2,0.8
				c-0.8,0.6-1.3,1.5-1.6,2.4c-0.1,0.4,0,0.8,0.2,1.2c0.2,0.3,0.5,0.6,0.9,0.7c0.4,0.1,0.8,0.1,1.2-0.2c0.3-0.2,0.6-0.5,0.7-0.9
				c0-0.1,0.1-0.2,0.1-0.3c-0.1,0.1-0.1,0.2-0.2,0.4c0.1-0.3,0.3-0.6,0.5-0.8c-0.1,0.1-0.2,0.2-0.2,0.3c0.2-0.3,0.4-0.5,0.7-0.7
				c-0.1,0.1-0.2,0.2-0.3,0.2c0.3-0.2,0.6-0.4,0.9-0.5c-0.1,0.1-0.2,0.1-0.4,0.2c0.3-0.1,0.6-0.2,0.9-0.3c-0.1,0-0.3,0-0.4,0.1
				c0,0,0.1,0,0.1,0c0.2,0,0.4,0,0.6-0.1c0.2-0.1,0.3-0.2,0.5-0.3c0.3-0.3,0.5-0.7,0.4-1.1c0-0.4-0.1-0.8-0.4-1.1
				C604.5,597.2,604.1,597,603.7,597L603.7,597z"/>
		</g>
	</g>
	<g>
		<g>
			<path class="st2" d="M600.5,602.4c0.3-0.2,0.6-0.5,0.9-0.7c-0.1,0.1-0.2,0.2-0.3,0.2c1-0.8,2.1-1.5,3.2-2.1
				c0.7-0.4,1-1.4,0.5-2.1c-0.5-0.7-1.3-0.9-2.1-0.5c-1.6,0.8-3,1.9-4.4,3c-0.3,0.2-0.4,0.7-0.4,1.1c0,0.4,0.2,0.8,0.4,1.1
				c0.3,0.3,0.7,0.5,1.1,0.4C599.8,602.8,600.2,602.7,600.5,602.4L600.5,602.4z"/>
		</g>
	</g>
	<g>
		<g>
			<path class="st2" d="M603.1,596.9c-0.8,0.3-1.6,0.7-2.4,1.3c-0.7,0.5-1.4,1.1-2,1.8c-0.3,0.3-0.4,0.6-0.4,1.1
				c0,0.4,0.2,0.8,0.4,1.1c0.3,0.3,0.7,0.5,1.1,0.4c0.4,0,0.8-0.1,1.1-0.4c0.5-0.6,1-1.1,1.5-1.5c-0.1,0.1-0.2,0.2-0.3,0.2
				c0.7-0.5,1.4-0.9,2.1-1.2c-0.1,0.1-0.2,0.1-0.4,0.2c0,0,0,0,0.1,0c0.4-0.2,0.7-0.3,0.9-0.7c0.2-0.3,0.3-0.8,0.2-1.2
				c-0.1-0.4-0.3-0.7-0.7-0.9C603.9,596.9,603.5,596.7,603.1,596.9L603.1,596.9z"/>
		</g>
	</g>
	<g>
		<g>
			<path class="st2" d="M600.5,602.2c0.4-0.4,0.9-0.8,1.3-1.2c-0.1,0.1-0.2,0.2-0.3,0.2c0.9-0.7,1.9-1.3,2.9-1.7
				c-0.1,0.1-0.2,0.1-0.4,0.2c0,0,0,0,0.1,0c0.4-0.2,0.7-0.3,0.9-0.7c0.2-0.3,0.3-0.8,0.2-1.2c-0.1-0.4-0.3-0.7-0.7-0.9
				c-0.3-0.2-0.8-0.3-1.2-0.2c-0.9,0.4-1.8,0.8-2.7,1.4c-0.8,0.6-1.6,1.2-2.3,1.9c-0.6,0.6-0.6,1.6,0,2.1
				C598.9,602.7,599.9,602.8,600.5,602.2L600.5,602.2z"/>
		</g>
	</g>
	<g>
		<g>
			<path class="st2" d="M602.4,596.8c-0.4,0.4-0.8,0.8-1.2,1.2c0.1-0.1,0.2-0.2,0.3-0.2c-0.5,0.4-1,0.7-1.5,0.9
				c-0.3,0.1-0.6,0.6-0.7,0.9c-0.1,0.4-0.1,0.8,0.2,1.2c0.2,0.3,0.5,0.6,0.9,0.7c0.1,0,0.3,0,0.4,0.1c0.3,0,0.5-0.1,0.8-0.2
				c0.5-0.2,1-0.5,1.5-0.9c0.6-0.4,1.1-0.9,1.5-1.4c0.3-0.3,0.4-0.6,0.4-1.1c0-0.4-0.2-0.8-0.4-1.1c-0.3-0.3-0.7-0.5-1.1-0.4
				C603.1,596.4,602.7,596.5,602.4,596.8L602.4,596.8z"/>
		</g>
	</g>
	<g>
		<g>
			<path class="st2" d="M601.5,601.6c0,0,0.1-0.1,0.1-0.1c-0.1,0.1-0.2,0.2-0.2,0.3c0.3-0.4,0.7-0.8,1.1-1.1
				c-0.1,0.1-0.2,0.2-0.3,0.2c0.4-0.3,0.9-0.6,1.4-0.8c-0.1,0.1-0.2,0.1-0.4,0.2c0.2-0.1,0.3-0.1,0.5-0.2c0.4-0.1,0.7-0.3,0.9-0.7
				c0.2-0.3,0.3-0.8,0.2-1.2c-0.1-0.4-0.3-0.7-0.7-0.9c-0.3-0.2-0.8-0.3-1.2-0.2c-0.7,0.2-1.5,0.6-2.1,1c-0.4,0.3-0.7,0.5-1,0.8
				c-0.3,0.3-0.6,0.7-0.9,1c-0.2,0.3-0.2,0.8-0.2,1.2c0.1,0.3,0.4,0.7,0.7,0.9c0.3,0.2,0.8,0.3,1.2,0.2c0.1-0.1,0.2-0.1,0.4-0.2
				C601.2,602,601.4,601.8,601.5,601.6L601.5,601.6z"/>
		</g>
	</g>
	<g>
		<g>
			<path class="st2" d="M602.9,596.5c-2.1,0.9-3.8,2.6-4.9,4.5c-0.4,0.7-0.2,1.7,0.5,2.1c0.7,0.4,1.7,0.2,2.1-0.5
				c0.2-0.4,0.5-0.8,0.8-1.2c-0.1,0.1-0.2,0.2-0.2,0.3c0.5-0.6,1-1.2,1.6-1.6c-0.1,0.1-0.2,0.2-0.3,0.2c0.6-0.5,1.3-0.8,1.9-1.1
				c0.3-0.1,0.6-0.6,0.7-0.9c0.1-0.4,0.1-0.8-0.2-1.2c-0.2-0.3-0.5-0.6-0.9-0.7c-0.1,0-0.3,0-0.4-0.1
				C603.4,596.3,603.1,596.4,602.9,596.5L602.9,596.5z"/>
		</g>
	</g>
	<g>
		<g>
			<path class="st2" d="M601.5,602.1c0-0.1,0.1-0.1,0.1-0.2c-0.1,0.1-0.2,0.2-0.2,0.3c0.5-0.6,1-1.2,1.7-1.7
				c-0.1,0.1-0.2,0.2-0.3,0.2c0.6-0.5,1.3-0.9,2.1-1.2c-0.1,0.1-0.2,0.1-0.4,0.2c0.1-0.1,0.3-0.1,0.5-0.2c0.4-0.1,0.7-0.3,0.9-0.7
				c0.2-0.3,0.3-0.8,0.2-1.2c-0.2-0.7-1.1-1.3-1.8-1c-1,0.4-1.9,0.8-2.8,1.5c-0.5,0.3-0.9,0.7-1.3,1.1c-0.4,0.4-0.8,0.9-1.1,1.4
				c-0.2,0.3-0.2,0.8-0.2,1.2c0.1,0.3,0.4,0.7,0.7,0.9c0.3,0.2,0.8,0.3,1.2,0.2C601,602.6,601.3,602.4,601.5,602.1L601.5,602.1z"/>
		</g>
	</g>
	<g>
		<g>
			<path class="st2" d="M605.6,596.3c-1.4-0.5-2.9,0.3-4,1.1c-1.1,0.8-2.2,1.7-3.3,2.5c-0.3,0.2-0.6,0.5-0.7,0.9
				c-0.1,0.4-0.1,0.8,0.2,1.2c0.4,0.6,1.4,1,2.1,0.5c1-0.8,2-1.5,3-2.3c0.4-0.3,0.9-0.7,1.3-0.9c0.1,0,0.1-0.1,0.2-0.1
				c0.1-0.1,0.1-0.1-0.1,0c0-0.1,0.4-0.1,0.4-0.1c-0.2,0-0.3,0-0.1,0c0.1,0,0.1,0,0.2,0c-0.2,0-0.3,0-0.1,0c0.1,0,0.1,0,0.2,0.1
				c0.7,0.3,1.7-0.3,1.8-1C606.8,597.3,606.4,596.6,605.6,596.3L605.6,596.3z"/>
		</g>
	</g>
	<g>
		<g>
			<path class="st2" d="M599.3,602.7c0.4-0.5,0.9-0.9,1.4-1.3c0.1,0,0.1-0.1,0.2-0.1c0.2-0.1-0.3,0.2,0,0c0.1-0.1,0.2-0.2,0.4-0.3
				c0.3-0.2,0.5-0.4,0.8-0.5c0.5-0.3,1.1-0.6,1.6-0.9c0.1-0.1,0.3-0.1,0.4-0.2c0.2-0.1-0.3,0.1-0.1,0c0.1,0,0.2-0.1,0.3-0.1
				c0.3-0.1,0.6-0.2,0.9-0.3c0.7-0.2,1.3-1.1,1-1.8c-0.2-0.7-1-1.3-1.8-1c-2.7,0.9-5.2,2.4-7.2,4.5c-0.5,0.6-0.6,1.6,0,2.1
				C597.8,603.3,598.7,603.3,599.3,602.7L599.3,602.7z"/>
		</g>
	</g>
	<g>
		<g>
			<path class="st2" d="M604.6,596c-1.1,0-2.2,0.5-3,1.4c-0.7,0.8-1.2,1.9-1.1,3.1c0,0.4,0.1,0.8,0.4,1.1c0.3,0.3,0.7,0.5,1.1,0.4
				c0.4,0,0.8-0.1,1.1-0.4c0.3-0.3,0.5-0.7,0.4-1.1c0-0.2,0-0.4,0-0.5c0,0.1,0,0.3-0.1,0.4c0-0.2,0.1-0.5,0.2-0.7
				c-0.1,0.1-0.1,0.2-0.2,0.4c0.1-0.2,0.2-0.4,0.4-0.6c-0.1,0.1-0.2,0.2-0.2,0.3c0.2-0.2,0.3-0.4,0.6-0.6c-0.1,0.1-0.2,0.2-0.3,0.2
				c0.2-0.1,0.4-0.3,0.6-0.4c-0.1,0.1-0.2,0.1-0.4,0.2c0.2-0.1,0.4-0.1,0.6-0.2c-0.1,0-0.3,0-0.4,0.1c0.1,0,0.2,0,0.3,0
				c0.4,0,0.8-0.2,1.1-0.4c0.3-0.3,0.5-0.7,0.4-1.1c0-0.4-0.1-0.8-0.4-1.1C605.3,596.2,605,596,604.6,596L604.6,596z"/>
		</g>
	</g>
	<g>
		<g>
			<path class="st2" d="M589.5,608.1c-1.6,0.1-3,0.6-4.3,1.7c-1.4,1.2,0.4,3.1,1.8,2.4c1.1-0.6,2.2-1.3,3.2-2.1
				c1.3-1.1-0.4-3.3-1.8-2.4c-1.9,1.4-3.8,2.7-5.7,4.1c-0.7,0.5-1.3,1-1.6,1.8c-0.4,0.9-0.4,2-0.5,2.9c-0.1,1.1-0.2,2.2-0.4,3.4
				c-0.1,1-0.4,2.2,0,3.2c0.3,0.9,1,1.5,1.7,2.1c0.9,0.8,1.8,1.5,2.6,2.3c7,6,14,12.1,21,18.1c1.5,1.3,3.6-0.9,2.1-2.1
				c-6.1-5.3-12.3-10.6-18.4-15.9c-1.5-1.3-3-2.6-4.5-3.9c-0.6-0.5-1.6-1-1.7-1.9c-0.1-0.9,0.2-2,0.3-2.9c0.1-1,0.2-1.9,0.3-2.9
				c0.1-1,0.1-1.3,1-1.9c1.8-1.3,3.5-2.5,5.3-3.8c-0.6-0.8-1.2-1.6-1.8-2.4c-0.8,0.7-1.6,1.2-2.6,1.6c0.6,0.8,1.2,1.6,1.8,2.4
				c0.6-0.5,1.3-0.8,2.1-0.8C591.4,611,591.4,608,589.5,608.1L589.5,608.1z"/>
		</g>
	</g>
	<g>
		<g>
			<path class="st2" d="M605.8,639.5c-0.3-1.7-1.3-3.2-2.6-4.3c-0.7-0.6-1.4-1.2-2.2-1.6c-0.4-0.2-0.7-0.4-1.1-0.7
				c-0.2-0.1-0.3-0.2-0.5-0.3c-0.1-0.1-0.2-0.1-0.3-0.2c0,0-0.1,0-0.1-0.1c-0.2-0.1-0.2,0,0.3,0.3c0.1,0.3,0.1,0.5,0.2,0.8
				c0,0,0-0.1,0-0.1c-0.1,0.3-0.1,0.5-0.2,0.8c0,0,0,0,0,0c-0.3,0.2-0.6,0.5-0.9,0.7c-0.1,0-0.2,0-0.3,0c-0.3-0.1-0.5-0.1-0.8-0.2
				c0,0,0,0,0,0c-0.2-0.2-0.4-0.4-0.5-0.5c0,0,0,0,0,0c0-0.5,0-1,0-1.5c0,0,0,0,0,0c-0.3,0.7-0.2,1.6,0.5,2.1
				c0.7,0.3,1.7,0.2,2.1-0.5c0.3-0.7,0.3-1.4-0.2-1.9c-0.4-0.4-1.1-0.6-1.6-0.4c-1.4,0.5-1.4,2.2-0.3,3c0.9,0.6,1.8,1,2.7,1.6
				c0.1,0.1,0.2,0.1,0.3,0.2c0.1,0,0.5,0.3,0.2,0.1c0.2,0.1,0.4,0.3,0.5,0.4c0.2,0.2,0.4,0.3,0.5,0.5c0.1,0.2,0.4,0.4,0.5,0.6
				c0,0-0.1-0.1-0.1-0.1c0,0.1,0.1,0.1,0.1,0.2c0.1,0.1,0.1,0.2,0.2,0.3c0.1,0.2,0.3,0.4,0.4,0.6c0,0,0.2,0.4,0.1,0.2
				c-0.1-0.2,0.1,0.2,0.1,0.2c0.1,0.2,0.1,0.5,0.2,0.7c0.2,0.8,1.1,1.3,1.8,1C605.6,641.1,606,640.4,605.8,639.5L605.8,639.5z"/>
		</g>
	</g>
	<g>
		<g>
			<path class="st2" d="M599.6,637.8c0.6,0.6,1.3,1.3,1.9,1.9c0.3,0.3,0.7,0.4,1.1,0.4c0.2,0,0.4,0,0.6-0.1c0.2-0.1,0.3-0.2,0.5-0.3
				c0.3-0.3,0.5-0.7,0.4-1.1c0-0.4-0.2-0.8-0.4-1.1c-0.6-0.6-1.3-1.3-1.9-1.9c-0.3-0.3-0.7-0.4-1.1-0.4c-0.2,0-0.4,0-0.6,0.1
				c-0.2,0.1-0.3,0.2-0.5,0.3c-0.3,0.3-0.5,0.7-0.4,1.1C599.2,637.1,599.3,637.5,599.6,637.8L599.6,637.8z"/>
		</g>
	</g>
	<g>
		<g>
			<path class="st2" d="M596.8,629.5c-1.1-1.2-2.2-2.4-3.4-3.5c-1.2-1-2.4-2-3.6-3c-1.9-1.6-3.9-4-2.8-6.7c0.3-0.8-0.3-1.6-1-1.8
				c-0.9-0.2-1.5,0.3-1.8,1c-1.3,3.2,0.5,6.7,2.8,8.9c1.2,1.2,2.6,2.1,3.8,3.2c1.4,1.2,2.7,2.6,3.9,3.9
				C596,633,598.1,630.9,596.8,629.5L596.8,629.5z"/>
		</g>
	</g>
	<g>
		<g>
			<path class="st2" d="M586.8,612.2c-1.7,0.6-2.4,2.2-2.7,3.8c-0.5,2.1-0.7,4.1,0.2,6.1c0.7,1.6,2,3,3.1,4.4
				c1.2,1.4,2.5,2.7,4.1,3.7c1.6,1,3.2-1.6,1.5-2.6c-2.2-1.4-4-3.7-5.5-5.8c-0.8-1.2-1-2.4-0.7-3.8c0.1-0.7,0.3-1.4,0.5-2.1
				c0.1-0.2,0.2-0.7,0.4-0.8c0.8-0.3,1.3-1,1-1.8C588.4,612.5,587.5,611.9,586.8,612.2L586.8,612.2z"/>
		</g>
	</g>
	<g>
		<g>
			<path class="st2" d="M594.2,629.4c-1.9-2.5-4-4.8-6.5-6.8c-0.9-0.7-2.3-1.5-2.6-2.7c-0.3-1.3,0.3-2.8,0.8-4
				c0.3-0.8-0.3-1.6-1-1.8c-0.8-0.2-1.6,0.3-1.8,1c-0.6,1.5-1.1,3.2-0.9,4.8c0.2,1.8,1.2,3,2.6,4.1c2.6,2,5,4.2,7,6.9
				c0.5,0.7,1.3,1,2.1,0.5C594.3,631.1,594.7,630,594.2,629.4L594.2,629.4z"/>
		</g>
	</g>
	<g>
		<g>
			<path class="st2" d="M584.1,614.1c-0.7,1.3-1.1,2.8-1,4.2c0,0.4,0.1,0.8,0.4,1.1c0.3,0.3,0.7,0.5,1.1,0.4c0.4,0,0.8-0.1,1.1-0.4
				c0.3-0.3,0.5-0.7,0.4-1.1c0-0.4,0-0.9,0-1.3c0,0.1,0,0.3-0.1,0.4c0.1-0.5,0.2-1.1,0.4-1.6c-0.1,0.1-0.1,0.2-0.2,0.4
				c0.1-0.2,0.2-0.4,0.3-0.6c0.2-0.3,0.3-0.8,0.2-1.2c-0.1-0.3-0.4-0.7-0.7-0.9C585.5,613.1,584.5,613.3,584.1,614.1L584.1,614.1z"
				/>
		</g>
	</g>
	<g>
		<g>
			<path class="st2" d="M585.1,614.2c-0.3-1.2-0.9-2.3-2.2-2.6c-0.8-0.2-1.6,0-2.1,0.6c-0.5,0.5-0.6,1.2-0.7,1.9
				c-0.1,2.2,0,4.5,0.3,6.7c0.1,0.8,1.1,1.3,1.8,1c0.9-0.3,1.2-1,1-1.8c0-0.1,0-0.2,0,0c0-0.1,0-0.2,0-0.3c0-0.2,0-0.4-0.1-0.6
				c0-0.4-0.1-0.8-0.1-1.2c-0.1-0.8-0.1-1.6-0.1-2.4c0-0.4,0-0.8,0-1.2c0-0.1,0-0.2,0-0.2c0-0.2,0,0.1,0,0.1c0,0,0.1-0.2,0.1-0.2
				c0,0.2-0.3,0.5-0.5,0.5c-0.1,0-0.1,0.1-0.2,0.1c-0.1,0-0.1,0-0.1,0c0.1,0,0.1,0-0.1,0c-0.1,0-0.1,0-0.2-0.1c-0.1-0.1-0.1-0.1,0,0
				c0,0-0.1-0.1-0.1-0.1c0.2,0.2,0-0.1,0-0.1c0,0,0.1,0.2,0.1,0.2c0,0-0.1-0.3,0-0.1c0.1,0.2,0.1,0.4,0.1,0.5c0.2,0.8,1.1,1.3,1.8,1
				C584.8,615.8,585.3,615.1,585.1,614.2L585.1,614.2z"/>
		</g>
	</g>
	<g>
		<g>
			<path class="st2" d="M581,619.7C581,619.8,581.1,620,581,619.7c0-0.2,0.1,0.1,0.1,0.2c0,0.1,0,0.1,0,0.2c0-0.2,0-0.3,0-0.2
				c0,0,0,0.1,0,0.1c0,0.2,0,0.3,0,0.5c0,0.2,0.1-0.4,0-0.1c0,0.1,0,0.1,0,0.2c-0.2,0.8-0.4,1.6-0.5,2.4c-0.1,1.7,1.1,3.5,3,3.5
				c0.8,0,1.5-0.7,1.5-1.5c0-0.8-0.7-1.5-1.5-1.5c-0.2,0,0.1,0,0.2,0c0,0-0.3-0.1-0.1,0c0.2,0.1,0,0,0,0c-0.1-0.1,0.2,0.2,0.1,0.1
				c0,0-0.1-0.1-0.1-0.1c0,0,0.2,0.3,0.1,0.1c0,0-0.1-0.1-0.1-0.1c-0.1-0.2,0,0.1,0,0.1c0-0.1-0.1-0.3-0.1-0.4c0-0.2,0,0.3,0,0.1
				c0-0.1,0-0.1,0-0.2c0-0.1,0-0.2,0-0.3c0,0.1,0,0.3,0,0.1c0-0.2,0.1-0.3,0.1-0.5c0.3-1.4,0.7-2.9-0.1-4.3c-0.4-0.7-1.4-1-2.1-0.5
				C580.9,618.1,580.6,619,581,619.7L581,619.7z"/>
		</g>
	</g>
	<g>
		<g>
			<path class="st1" d="M1143.9,671.4c-1.1-0.2-2.3-0.3-3.4-0.5c-1.1-0.1-2.2-0.3-3.2-0.7c-0.3,1-0.5,1.9-0.8,2.9
				c2.1,0.7,4.3,0.9,6.5,1.2c0-1,0-2,0-3c-1.5,0.1-2.9,0.1-4.4,0c-0.8,0-1.5,0.7-1.5,1.5c0,0.9,0.7,1.4,1.5,1.5
				c0.7,0,1.4,0.1,2.1,0.2c0.3,0,0.6,0.1,1,0.1c0.2,0,0.4,0,0.6,0.1c-0.3,0,0.2,0,0.3,0c0.1-1,0.3-2,0.4-2.9
				c-1.9-0.1-3.8-0.1-5.7-0.2c0,1,0,2,0,3c2.3-0.1,4.6,0.2,6.8,0.5c0.8,0.1,1.5-0.8,1.5-1.5c0-0.9-0.7-1.4-1.5-1.5
				c-2.3-0.3-4.5-0.6-6.8-0.5c-0.8,0-1.5,0.7-1.5,1.5c0,0.8,0.7,1.5,1.5,1.5c1.9,0.1,3.8,0.1,5.7,0.2c0.7,0,1.4-0.6,1.5-1.3
				c0.1-0.7-0.3-1.5-1.1-1.6c-1.6-0.2-3.1-0.4-4.7-0.5c0,1,0,2,0,3c1.5,0.1,2.9,0,4.4,0c0.8,0,1.5-0.7,1.5-1.5
				c0-0.9-0.7-1.4-1.5-1.5c-0.5-0.1-1-0.1-1.5-0.2c-0.1,0-0.3,0-0.4-0.1c-0.4-0.1,0.3,0-0.1,0c-0.2,0-0.5-0.1-0.7-0.1
				c-1-0.2-2-0.4-3-0.7c-0.7-0.2-1.7,0.3-1.8,1c-0.2,0.8,0.3,1.6,1,1.8c1,0.4,2.1,0.5,3.2,0.7c1.1,0.2,2.3,0.3,3.4,0.5
				c0.4,0.1,0.8,0.1,1.2-0.2c0.3-0.2,0.6-0.5,0.7-0.9C1145.1,672.5,1144.7,671.5,1143.9,671.4L1143.9,671.4z"/>
		</g>
	</g>
	<g>
		<g>
			<path class="st1" d="M1145,673.2c-2.6-0.5-5.3-1-7.9-1.5c-0.8-0.1-1.7,0.2-1.8,1c-0.2,0.7,0.2,1.7,1,1.8c2.6,0.5,5.3,1,7.9,1.5
				c0.8,0.1,1.7-0.2,1.8-1C1146.2,674.3,1145.8,673.4,1145,673.2L1145,673.2z"/>
		</g>
	</g>
	<g>
		<g>
			<path class="st2" d="M1148.5,684c-3.5-0.6-7-1.3-10.5-1.9c-0.8-0.1-1.6,0.2-1.8,1c-0.2,0.7,0.2,1.7,1,1.8c3.5,0.6,7,1.3,10.5,1.9
				c0.8,0.1,1.6-0.2,1.8-1C1149.8,685.1,1149.3,684.2,1148.5,684L1148.5,684z"/>
		</g>
	</g>
	<g>
		<g>
			<path class="st2" d="M1156.3,696.1c-2.3-4-4.7-8-7-12.1c-1-1.7-3.6-0.2-2.6,1.5c2.3,4,4.7,8,7,12.1
				C1154.7,699.3,1157.3,697.8,1156.3,696.1L1156.3,696.1z"/>
		</g>
	</g>
	<g>
		<g>
			<path class="st2" d="M1184,766.2c-0.3-1.2-0.6-2.5-1-3.7c-0.9,0.4-1.8,0.8-2.7,1.2c0.3,0.5,0.7,0.9,1,1.4c1,1.3,3.1,0.6,2.7-1.2
				c-0.8-3.7-2.1-7.2-3.7-10.6c-0.9,0.5-1.7,1-2.6,1.5c0.7,0.9,1.2,1.9,1.5,3c1-0.3,1.9-0.5,2.9-0.8c-1.7-5.1-3.3-10.2-5.1-15.3
				c-1.6-4.6-2.8-9.8-5.8-13.6c-1.2-1.5-3.3,0.6-2.1,2.1c1.5,1.8,2.2,4.1,3,6.3c0.8,2.3,1.6,4.6,2.4,6.9c1.6,4.8,3.2,9.5,4.8,14.3
				c0.6,1.8,3.4,1.1,2.9-0.8c-0.4-1.3-0.9-2.6-1.8-3.7c-1.2-1.5-3.4-0.3-2.6,1.5c1.5,3.2,2.6,6.5,3.4,9.9c0.9-0.4,1.8-0.8,2.7-1.2
				c-0.3-0.5-0.7-0.9-1-1.4c-1-1.3-3.2-0.6-2.7,1.2c0.3,1.2,0.6,2.5,1,3.7C1181.6,768.9,1184.5,768.1,1184,766.2L1184,766.2z"/>
		</g>
	</g>
	<g>
		<g>
			<path class="st2" d="M1180.9,764.7c0.9,2.5,1.1,5.1,0.6,7.6c-0.4,2.3-1.2,5-3.6,6c-0.7,0.3-0.9,1.4-0.5,2.1
				c0.4,0.8,1.3,0.9,2.1,0.5c2.9-1.3,4.3-4.6,4.9-7.6c0.6-3.2,0.5-6.5-0.6-9.5c-0.3-0.8-1-1.3-1.8-1
				C1181.2,763,1180.6,763.9,1180.9,764.7L1180.9,764.7z"/>
		</g>
	</g>
	<g>
		<g>
			<path class="st2" d="M1179.7,781.4c0.7-1,1.6-2,2.6-2.7c0.6-0.4,1.2-0.8,1.6-1.3c0.5-0.6,0.8-1.2,0.9-2c0.2-1.5,0.1-3.1,0.1-4.6
				c-0.1-1.7-0.3-3.4-0.5-5.1c-0.1-0.8-1.1-1.2-1.8-1c-0.9,0.2-1.2,1-1,1.8c0.2,1.5,0.3,2.9,0.4,4.4c0.1,1.2,0.2,2.6,0,3.8
				c-0.2,1-1.4,1.5-2.1,2.1c-1,0.9-1.8,1.9-2.6,3c-0.5,0.7-0.1,1.7,0.5,2.1C1178.4,782.4,1179.2,782.1,1179.7,781.4L1179.7,781.4z"
				/>
		</g>
	</g>
	<g>
		<g>
			<path class="st2" d="M1181.1,764.8c1.2,1.1,1.6,2.8,1.7,4.3c0.1,1,0.2,2,0.2,3c0,0.2,0,0.4-0.1,0.6c0,0.2-0.1,0.4-0.1,0.5
				c-0.2,0.4-0.3,0.5-0.7,0.7c-0.7,0.3-0.9,1.4-0.5,2.1c0.4,0.8,1.3,0.9,2.1,0.5c2.7-1.2,2.5-4.7,2.3-7.2c-0.2-2.4-0.8-4.9-2.6-6.6
				c-0.6-0.6-1.5-0.6-2.1,0C1180.6,763.3,1180.5,764.3,1181.1,764.8L1181.1,764.8z"/>
		</g>
	</g>
	<g>
		<g>
			<path class="st1" d="M1177.5,789.4c-0.6,0.5-1.2,1-1.8,1.5c-0.2,0.2,0.2-0.1,0,0c-0.1,0.1-0.2,0.1-0.3,0.2
				c-0.2,0.1-0.3,0.2-0.5,0.3c-0.3,0.2-0.7,0.5-1,0.7c-1.3,0.9-2.7,1.7-4.1,2.4c-0.7,0.3-1,1.4-0.5,2.1c0.5,0.7,1.3,0.9,2.1,0.5
				c3-1.5,5.8-3.4,8.4-5.7c0.6-0.5,0.6-1.6,0-2.1C1179,788.9,1178.1,788.9,1177.5,789.4L1177.5,789.4z"/>
		</g>
	</g>
	<g>
		<g>
			<path class="st1" d="M1177.3,789.5c-0.3,0.1-0.6,0.2-0.9,0.4c-0.3,0.2-0.5,0.4-0.8,0.6c-0.4,0.3-0.8,0.8-1.1,1.2
				c-0.1,0.2-0.2,0.4-0.2,0.6c0,0.2,0,0.4,0,0.6c0,0.2,0.1,0.4,0.3,0.5c0.1,0.2,0.2,0.3,0.4,0.4c0.3,0.2,0.8,0.3,1.2,0.2
				c0.4-0.1,0.7-0.3,0.9-0.7c0.1-0.1,0.1-0.2,0.2-0.3c-0.1,0.1-0.2,0.2-0.2,0.3c0.2-0.3,0.4-0.5,0.7-0.7c-0.1,0.1-0.2,0.2-0.3,0.2
				c0.3-0.2,0.5-0.4,0.8-0.5c-0.1,0.1-0.2,0.1-0.4,0.2c0.1,0,0.1,0,0.2-0.1c0.2,0,0.4-0.1,0.5-0.3c0.2-0.1,0.3-0.2,0.4-0.4
				c0.1-0.2,0.2-0.4,0.2-0.6c0-0.2,0-0.4,0-0.6c-0.1-0.4-0.3-0.7-0.7-0.9C1178.1,789.5,1177.7,789.4,1177.3,789.5L1177.3,789.5z"/>
		</g>
	</g>
	<g>
		<g>
			<path class="st2" d="M978.4,415.7c-1.4-3.3-5.2-4.8-8.6-4.3c-4,0.5-6.9,3.5-8.3,7.2c-1.7,4.4-0.9,9.2,0.2,13.6
				c1.3,5.2,2.7,10.2,3,15.7c0.1,1.5,0.1,3,0,4.6c0,1.4-0.4,2.8-0.2,4.2c0.2,1.4,1.2,2.2,2.2,3.2c1.2,1.1,2.3,2.2,3.5,3.3
				c1.4,1.3,3.5-0.8,2.1-2.1c-0.8-0.8-1.6-1.5-2.4-2.3c-0.6-0.6-2.1-1.6-2.3-2.4c-0.3-0.8,0.1-2.2,0.1-3.1c0.1-1.2,0.1-2.4,0-3.6
				c-0.1-4.5-0.7-9-1.9-13.4c-1.1-4.2-2.6-8.4-2.3-12.7c0.2-3.2,1.5-6.8,4.4-8.4c2.7-1.4,6.6-0.7,7.8,2.2c0.3,0.8,1.4,0.9,2.1,0.5
				C978.7,417.3,978.8,416.5,978.4,415.7L978.4,415.7z"/>
		</g>
	</g>
	<g>
		<g>
			<path class="st2" d="M975.4,417.8c-2-2.7-5.2-4.3-8.6-4c-1.5,0.2-2.2,2.7-0.4,2.9c2.6,0.4,4.9,1.5,6.9,3.2
				C974.7,421.2,976.7,419.3,975.4,417.8c-1.7-1.9-4.2-3.1-6.8-3.3c-1.8-0.1-1.9,2.4-0.4,2.9c1.9,0.7,3.8,1.4,5.8,2.1
				c1.5,0.6,2.4-1.5,1.5-2.5c-1.1-1.3-2.6-1.9-4.3-2.1c0.1,1,0.3,2,0.4,2.9c0.5-0.1,1,0.1,1.5,0.3c1.4,0.5,2.6-1.6,1.5-2.5
				c-2.1-1.7-5-1.4-6.9,0.5c-2.2,2.2-2.4,5.7-2.5,8.6c-0.1,6.6,1.4,13.2,4.4,19.1c0.9,1.7,3.5,0.2,2.6-1.5c-2.3-4.5-3.7-9.4-4-14.5
				c-0.1-2.3-0.2-4.9,0.3-7.2c0.2-1,0.6-2,1.4-2.6c0.6-0.5,1.7-0.8,2.4-0.3c0.5-0.8,1-1.7,1.5-2.5c-1-0.4-2-0.4-3.1-0.3
				c-0.7,0.1-1.2,1-1.1,1.6c0.1,0.8,0.7,1.2,1.5,1.3c0.9,0.1,1.6,0.6,2.1,1.2c0.5-0.8,1-1.7,1.5-2.5c-1.9-0.7-3.8-1.4-5.8-2.1
				c-0.1,1-0.3,2-0.4,2.9c1.9,0.2,3.5,1.1,4.7,2.5C974,419.2,974.7,418.5,975.4,417.8c-2.3-2-5.1-3.4-8.2-3.9c-0.1,1-0.3,2-0.4,2.9
				c2.3-0.3,4.6,0.6,6,2.5C973.9,420.8,976.5,419.3,975.4,417.8L975.4,417.8z"/>
		</g>
	</g>
	<g>
		<g>
			<path class="st2" d="M966.6,415.8c-7.3,11.4-1.8,25,3.3,36c0.8,1.8,3.4,0.2,2.6-1.5c-4.6-10-10-22.6-3.3-33
				C970.2,415.7,967.6,414.2,966.6,415.8L966.6,415.8z"/>
		</g>
	</g>
	<g>
		<g>
			<path class="st2" d="M971.9,418.3C971.7,418.1,971.8,418.2,971.9,418.3c0.2,0,0.5,0.1,0.6,0.3c0.6,0.6,0.7,1.7,0.8,2.4
				c0.9-0.4,1.8-0.8,2.7-1.2c-1.4-2.3-3.3-4.9-6.2-5.4c-2.9-0.5-5.4,1.6-6.8,3.9c-2.7,4.3-2.3,10.3,1.2,14c0.9,1,2.5,0.2,2.6-1.1
				c0.2-3.5,0.6-6.9,1.4-10.3c-0.8,0.2-1.7,0.4-2.5,0.7c0.7,0.6,0.9,1.4,1.1,2.4c0.2,1.4,0.2,2.9,0.3,4.3c0.2,3,0.5,5.9,0.7,8.9
				c1,0,2,0,3,0c-0.7-5.2-1.4-10.5-0.4-15.7c-1,0-1.9,0-2.9,0c1,4.9,0.8,9.9-0.4,14.7c1,0,1.9,0,2.9,0c-0.8-3.8-1-7.9-0.3-11.7
				c0.3-1.9,0.9-3.8,1.5-5.6c0.1-0.4,0.3-0.8,0.5-1.2c0.1-0.1,0.4-0.6,0.3-0.6c0.5-0.1,1.3,1.4,1.5,1.7c0.9-0.5,1.7-1,2.6-1.5
				c-1-1.5-3.1-3.9-5.2-3.4c-1.2,0.3-1.6,1.5-1.7,2.6c-0.2,1.3-0.2,2.7-0.3,4.1c-0.3,5.5-0.4,11-0.1,16.5c0.1,1.9,3.1,1.9,3,0
				c-0.2-4.1-0.3-8.3-0.1-12.4c0.1-2,0.2-4,0.3-6c0-0.5,0.3-1.2,0.1-1.7c0.2-0.6-0.1-0.7-0.8-0.1c0.1,0.1,0.2,0.1,0.3,0.2
				c0.3,0.3,0.8,0.5,1.1,0.8c0.3,0.3,0.6,0.7,0.8,1c1,1.6,3.5,0.2,2.6-1.5c-1-1.9-3.2-4.1-5.5-2.8c-1,0.6-1.5,1.7-1.9,2.7
				c-0.5,1.3-1,2.5-1.3,3.9c-1.4,5.2-1.5,10.7-0.3,16c0.3,1.4,2.5,1.4,2.9,0c1.3-5.4,1.4-10.9,0.4-16.3c-0.3-1.4-2.6-1.4-2.9,0
				c-1.1,5.5-0.5,11,0.2,16.5c0.1,0.8,0.6,1.5,1.5,1.5c0.8,0,1.6-0.7,1.5-1.5c-0.3-3.4-0.5-6.8-0.8-10.2c-0.2-2.5,0-5.7-2.2-7.5
				c-0.8-0.7-2.3-0.5-2.5,0.7c-0.8,3.7-1.3,7.4-1.5,11.1c0.9-0.4,1.7-0.7,2.6-1.1c-2.4-2.5-2.8-6.6-1.2-9.6c0.7-1.4,2.3-3.4,4.1-3.2
				c1.9,0.2,3.3,2.5,4.2,3.9c0.9,1.5,3,0.5,2.7-1.2c-0.4-2.3-1.6-5-4.3-5c-2.2,0-4,2.6-2.6,4.5C970.4,421.3,973,419.8,971.9,418.3
				L971.9,418.3z"/>
		</g>
	</g>
	<g>
		<g>
			<path class="st2" d="M969.7,426.7c-0.7,8.3-0.8,16.6-0.3,24.9c1-0.1,2-0.3,2.9-0.4c-0.3-1.7-0.3-3.4-0.2-5.1c-1,0-2,0-3,0
				c0.1,3.8-0.2,7.5-1,11.1c1,0,1.9,0,2.9,0c-0.7-3-0.9-6.1-0.5-9.1c0.1-0.8-0.2-1.6-1-1.8c-0.7-0.2-1.7,0.2-1.8,1
				c-0.5,3.6-0.4,7.2,0.5,10.7c0.3,1.4,2.6,1.4,2.9,0c0.9-3.9,1.3-7.9,1.1-11.9c-0.1-1.9-2.9-1.9-3,0c-0.1,2,0,3.9,0.3,5.9
				c0.3,1.7,3,1.3,2.9-0.4c-0.5-8.3-0.3-16.6,0.3-24.9C972.8,424.8,969.8,424.8,969.7,426.7L969.7,426.7z"/>
		</g>
	</g>
	<g>
		<g>
			<path class="st2" d="M961.2,473.7c1.7-1,2.3-2.9,2.4-4.8c0-0.9-0.1-1.8-0.1-2.7c-0.1-1.1-0.1-1.8,0.3-2.8c-1,0-1.9,0-2.9,0
				c1,2.5,2,4.9,2.9,7.4c0.3,0.7,1,1.3,1.8,1c0.7-0.2,1.4-1.1,1-1.8c-1-2.5-2-4.9-2.9-7.4c-0.2-0.6-0.7-1.1-1.4-1.1
				c-0.7,0-1.2,0.5-1.4,1.1c-0.8,1.8-0.4,3.7-0.3,5.6c0,0.3,0,0.7,0,1c0,0.2,0,0.1,0,0c0,0.1,0,0.2,0,0.3c0,0.2-0.1,0.3-0.1,0.5
				c0,0.1-0.1,0.2-0.1,0.2c0,0.1-0.1,0.1,0,0c-0.1,0.2-0.2,0.3-0.3,0.5c-0.1,0.2,0.1-0.1,0,0c-0.1,0.1-0.1,0.1-0.2,0.2
				c0,0-0.2,0.2-0.1,0.1c0.1-0.1-0.1,0.1-0.2,0.1c-0.7,0.4-1,1.4-0.5,2.1C959.6,473.8,960.5,474.1,961.2,473.7L961.2,473.7z"/>
		</g>
	</g>
	<g>
		<g>
			<path class="st2" d="M962.6,465.5c0.8,1.1,1.5,2.3,2.1,3.5c0.1,0.2,0.1,0.3,0.2,0.5c0,0.1,0.1,0.2,0.1,0.2c-0.1-0.2-0.1-0.2,0,0
				c0.1,0.3,0.2,0.6,0.3,0.9c0.2,0.7,0.4,1.3,0.6,2c0.2,0.8,1.1,1.3,1.8,1c0.8-0.3,1.3-1,1-1.8c-0.7-2.8-2-5.5-3.6-7.8
				c-0.5-0.6-1.3-1-2.1-0.5C962.5,463.8,962.1,464.8,962.6,465.5L962.6,465.5z"/>
		</g>
	</g>
	<g>
		<g>
			<path class="st2" d="M961.2,467.1c0,0,0.1,0,0.1,0c0.7,0,1.2-0.5,1.4-1.1c0.2-0.5,0.1-1-0.2-1.4c-0.2-0.4-0.8-0.8-1.3-0.7
				c-1.3,0.1-2,1.2-2.9,2c-1,1.1-2.1,2.1-3.1,3.2c-1.2,1.2,0.4,3.3,1.8,2.4c1.3-0.8,2.4-1.9,3.1-3.3c0.8-1.6-1-2.9-2.4-1.8
				c-5.4,4.3-10.9,8.4-16,13c-2.4,2.2-4.7,4.5-6.7,7.1c-1.8,2.4-3.3,5.3-3,8.4c0.2,1.9,3.2,1.9,3,0c-0.4-3,1.4-5.6,3.2-7.8
				c2-2.3,4.2-4.5,6.5-6.6c4.8-4.3,9.9-8.2,15-12.1c-0.8-0.6-1.6-1.2-2.4-1.8c-0.5,0.9-1.1,1.7-2,2.3c0.6,0.8,1.2,1.6,1.8,2.4
				c1.5-1.6,3-3.4,4.7-4.8c-0.4,0.1-0.7,0.3-1.1,0.4c0.1,0,0.2,0,0.2,0c-0.4-0.2-0.9-0.5-1.3-0.7c0,0,0,0.1,0.1,0.1
				c-0.1-0.4-0.1-0.8-0.2-1.2c0,0,0,0.1-0.1,0.1c0.5-0.4,1-0.7,1.4-1.1c0,0-0.1,0-0.1,0C959.3,464.1,959.3,467.1,961.2,467.1
				L961.2,467.1z"/>
		</g>
	</g>
	<g>
		<g>
			<path class="st2" d="M937.9,487.2c5.4-8.8,14.4-15.1,24.5-17.3c1.9-0.4,1.1-3.3-0.8-2.9c-10.9,2.3-20.5,9.2-26.3,18.7
				C934.3,487.4,936.9,488.9,937.9,487.2L937.9,487.2z"/>
		</g>
	</g>
	<g>
		<g>
			<path class="st2" d="M962.1,466.9c0.3-1,0.2-2-0.4-2.8c-0.7-1-1.9-0.9-2.6,0c-1.5,2-3.4,3.7-5.6,5c-2.1,1.3-4.4,1.9-5.5,4.3
				c-2.1,4.6-1.3,10.5,0.8,14.9c0.8,1.7,3.4,0.2,2.6-1.5c-1-2.1-1.5-4.4-1.6-6.7c0-1.9,0-5,1.6-6.4c0.7-0.6,1.7-0.9,2.5-1.4
				c1-0.5,2-1.1,2.9-1.8c1.9-1.4,3.5-3,4.9-4.9c-0.9,0-1.7,0-2.6,0c0.2,0.3,0.2,0.2,0.1,0.5C958.7,468,961.6,468.8,962.1,466.9
				L962.1,466.9z"/>
		</g>
	</g>
	<g>
		<g>
			<path class="st2" d="M950.1,479c0.2-0.4,0.5-0.8,0.8-1.2c0.1-0.1,0.1-0.2,0,0c0.1-0.1,0.2-0.2,0.2-0.3c0.2-0.2,0.3-0.4,0.5-0.5
				c0.2-0.2,0.3-0.3,0.5-0.4c0.1-0.1,0.2-0.2,0.3-0.3c0.1-0.1,0.2-0.1,0,0c0.4-0.3,0.8-0.6,1.2-0.8c0.2-0.1,0.4-0.2,0.6-0.3
				c0.1-0.1,0.2-0.1,0.3-0.2c-0.2,0.1,0,0,0.1,0c0.4-0.2,0.9-0.3,1.3-0.4c0.2-0.1,0.5-0.1,0.7-0.1c0,0,0.4-0.1,0.2,0
				c-0.2,0,0.2,0,0.2,0c0.5,0,1,0,1.4,0c0.8,0,1.5-0.7,1.5-1.5c0-0.9-0.7-1.5-1.5-1.5c-4.5-0.3-9,2.3-11.1,6.2
				c-0.4,0.7-0.2,1.6,0.5,2.1C948.8,479.9,949.7,479.7,950.1,479L950.1,479z"/>
		</g>
	</g>
	<g>
		<g>
			<path class="st2" d="M957.8,471.6c-3.1,0.3-5.6,2.1-7.3,4.7c-1.8,2.7-2.4,6-3,9.2c-0.1,0.8,0.2,1.6,1,1.8c0.7,0.2,1.7-0.2,1.8-1
				c0.5-2.7,1-5.6,2.4-8c1.1-1.8,2.9-3.5,5-3.7c0.8-0.1,1.5-0.6,1.5-1.5C959.3,472.4,958.6,471.5,957.8,471.6L957.8,471.6z"/>
		</g>
	</g>
</g>
</svg>
